<svg width="36" height="36" viewBox="0 0 36 36" fill="none" xmlns="http://www.w3.org/2000/svg">
<path fill-rule="evenodd" clip-rule="evenodd" d="M14.243 23.9854C14.7025 24.3303 15.1799 24.6507 15.6732 24.9451C16.4166 25.3887 17.1947 25.7713 18 26.089C18.8053 25.7713 19.5835 25.3887 20.3269 24.9451C20.8202 24.6507 21.2976 24.3303 21.757 23.9854C20.3743 23.7784 19.0748 23.1961 18 22.3019C16.9252 23.1961 15.6258 23.7783 14.243 23.9853V23.9854ZM18.5217 12.3199C19.1525 13.1052 19.622 14.0074 19.9031 14.9747C20.7133 14.1893 21.6872 13.5927 22.7549 13.2277C22.8121 13.2085 22.8727 13.2017 22.9326 13.2077C22.9926 13.2138 23.0506 13.2325 23.1028 13.2628C23.1549 13.293 23.2 13.3341 23.235 13.3831C23.2701 13.4322 23.2942 13.4882 23.3059 13.5473H23.3063C23.5116 14.5945 23.4962 15.6731 23.2609 16.714C24.2676 16.5024 25.3065 16.4953 26.3159 16.6933C26.377 16.7052 26.4347 16.7303 26.485 16.767C26.5352 16.8037 26.5767 16.851 26.6066 16.9056C26.6364 16.9602 26.6539 17.0206 26.6577 17.0827C26.6615 17.1448 26.6515 17.207 26.6286 17.2648C26.3314 18.1265 25.8829 18.9282 25.304 19.6322C25.2125 19.7434 25.1176 19.8523 25.0193 19.9588C25.1692 20.0021 25.3171 20.0498 25.4631 20.1019C26.8302 18.0746 27.5686 15.9295 27.5686 14.1189C27.5686 11.3999 25.953 9.88058 23.1176 9.88058C22.2113 9.88471 21.3196 10.1089 20.5192 10.5337C19.7187 10.9586 19.0333 11.5716 18.5221 12.3199H18.5217ZM20.1212 15.9693C20.7906 15.2085 21.6221 14.6074 22.5545 14.2104C22.6674 15.1393 22.5869 16.0816 22.3179 16.9779C21.5296 17.2546 20.7915 17.6577 20.1324 18.1712C20.2343 17.4406 20.2305 16.6991 20.1212 15.9696V15.9693ZM19.7685 19.6611C20.4993 18.8462 21.4156 18.2194 22.4399 17.8337C23.4642 17.448 24.5663 17.3147 25.6531 17.4451C25.0882 18.7665 24.1196 19.8751 22.886 20.6122C21.6525 21.3493 20.2173 21.6771 18.7861 21.5486C19.2 20.9683 19.5306 20.333 19.7685 19.6611ZM17.214 21.5486C16.8276 21.0069 16.5136 20.4171 16.28 19.7942C16.2633 19.7501 16.2472 19.7057 16.2315 19.6611C15.5007 18.8463 14.5844 18.2196 13.5601 17.8339C12.5358 17.4482 11.4337 17.3148 10.3469 17.4452C10.9118 18.7666 11.8804 19.8753 13.1139 20.6124C14.3475 21.3495 15.7827 21.6772 17.214 21.5486V21.5486ZM15.8675 18.1708C15.2083 17.6577 14.4703 17.2549 13.6822 16.978C13.4132 16.0816 13.3326 15.1392 13.4455 14.2101C14.3779 14.6071 15.2094 15.2082 15.8787 15.969C15.7694 16.6985 15.7657 17.4399 15.8675 18.1705V18.1708ZM16.0969 14.9747C15.2867 14.1893 14.3128 13.5927 13.2451 13.2277C13.1879 13.2085 13.1273 13.2017 13.0674 13.2077C13.0074 13.2138 12.9494 13.2325 12.8972 13.2628C12.8451 13.293 12.8 13.3341 12.765 13.3831C12.7299 13.4322 12.7058 13.4882 12.6941 13.5473C12.4887 14.5946 12.5042 15.6731 12.7394 16.714C11.7328 16.5024 10.6938 16.4954 9.68435 16.6934C9.6252 16.7051 9.56923 16.7292 9.52016 16.7643C9.47109 16.7993 9.43006 16.8444 9.39981 16.8965C9.36955 16.9487 9.35077 17.0067 9.34472 17.0667C9.33867 17.1267 9.34549 17.1872 9.36471 17.2444C9.70922 18.2516 10.2598 19.1759 10.9814 19.9585C10.8315 20.0019 10.6835 20.0496 10.5375 20.1017C9.17053 18.0744 8.43201 15.9293 8.43201 14.1187C8.43201 11.3997 10.0477 9.88072 12.8831 9.88072C13.7893 9.88485 14.681 10.109 15.4815 10.5339C16.282 10.9588 16.9673 11.5717 17.4785 12.32C16.8477 13.1053 16.3783 14.0076 16.0972 14.9749L16.0969 14.9747ZM18.9287 14.7183C19.3289 15.7889 19.4536 16.9428 19.2913 18.0742C19.129 19.2055 18.685 20.2779 18 21.1928C17.1181 20.014 16.6416 18.5813 16.6416 17.1091C16.6416 15.6369 17.1181 14.2042 18 13.0253C18.3886 13.5426 18.7013 14.1128 18.9287 14.7185V14.7183ZM24.2936 20.6477C25.2654 20.852 26.1805 21.2669 26.9745 21.8632C25.9365 22.6403 24.6984 23.1053 23.4054 23.2035C22.1125 23.3017 20.8184 23.0291 19.6749 22.4177C21.3679 22.3546 22.9922 21.7321 24.2938 20.6477H24.2936ZM16.3251 22.4177C15.1816 23.0291 13.8875 23.3017 12.5946 23.2035C11.3016 23.1053 10.0635 22.6403 9.02551 21.8632C9.81969 21.2668 10.735 20.8519 11.707 20.6477C13.0085 21.7318 14.6324 22.3543 16.3251 22.4177ZM23.0109 24.0684C21.5614 25.2884 19.9188 26.2585 18.1507 26.939C18.0536 26.976 17.9464 26.976 17.8493 26.939C16.9445 26.5918 16.0713 26.1673 15.2394 25.6702C14.4475 25.1975 13.695 24.6619 12.9891 24.0684C11.1828 24.0409 9.44474 23.3743 8.08334 22.1869C8.03669 22.1477 7.99907 22.0988 7.97306 22.0437C7.94705 21.9886 7.93326 21.9286 7.93263 21.8676C7.93201 21.8067 7.94457 21.7464 7.96945 21.6907C7.99433 21.6351 8.03094 21.5855 8.07677 21.5454C8.58166 21.1047 9.14211 20.732 9.74383 20.4369C8.02852 17.8352 6.90001 14.3465 8.04385 11.7546C8.87237 9.87726 10.6748 9.03293 12.883 9.03293C13.8762 9.03715 14.855 9.27117 15.7427 9.71666C16.6304 10.1622 17.403 10.807 18 11.6008C18.597 10.807 19.3696 10.1621 20.2574 9.71663C21.1452 9.27114 22.124 9.03713 23.1172 9.03293C26.4297 9.03293 28.416 10.9427 28.416 14.1189C28.416 16.0498 27.6594 18.3092 26.2564 20.4372C26.8581 20.7323 27.4185 21.105 27.9234 21.5457C27.9693 21.5858 28.0058 21.6354 28.0307 21.691C28.0556 21.7467 28.0681 21.807 28.0675 21.8679C28.0669 21.9288 28.0531 21.9889 28.0271 22.044C28.0011 22.0991 27.9635 22.1479 27.9169 22.1871C26.536 23.3693 24.8582 24.04 23.0111 24.0687L23.0109 24.0684ZM8.03806 28.561L9.76417 26.835C9.84138 26.755 9.8841 26.648 9.88313 26.5369C9.88216 26.4257 9.83759 26.3194 9.75901 26.2409C9.68043 26.1623 9.57413 26.1177 9.463 26.1167C9.35187 26.1158 9.24481 26.1585 9.16488 26.2357L7.43877 27.9617C7.39829 28.0008 7.366 28.0476 7.34379 28.0993C7.32158 28.151 7.30988 28.2066 7.30939 28.2629C7.30891 28.3192 7.31963 28.375 7.34094 28.4271C7.36225 28.4792 7.39372 28.5265 7.43352 28.5663C7.47331 28.6061 7.52063 28.6375 7.57272 28.6588C7.6248 28.6802 7.68061 28.6909 7.73689 28.6904C7.79317 28.6899 7.84878 28.6782 7.90049 28.656C7.9522 28.6338 7.99896 28.6015 8.03806 28.561ZM1.04688 18.4238C0.934469 18.4238 0.826666 18.3792 0.747183 18.2997C0.6677 18.2202 0.623047 18.1124 0.623047 18C0.623047 17.8876 0.6677 17.7798 0.747183 17.7003C0.826666 17.6208 0.934469 17.5762 1.04688 17.5762H5.92895C6.04136 17.5762 6.14916 17.6208 6.22864 17.7003C6.30813 17.7798 6.35278 17.8876 6.35278 18C6.35278 18.1124 6.30813 18.2202 6.22864 18.2997C6.14916 18.3792 6.04136 18.4238 5.92895 18.4238H1.04688ZM5.71273 6.31202C5.63552 6.23209 5.59281 6.12503 5.59377 6.0139C5.59474 5.90277 5.63931 5.79647 5.71789 5.71789C5.79647 5.63931 5.90277 5.59474 6.0139 5.59377C6.12503 5.59281 6.23209 5.63552 6.31202 5.71273L8.03806 7.43877C8.11527 7.5187 8.15798 7.62576 8.15702 7.73689C8.15605 7.84802 8.11148 7.95432 8.0329 8.0329C7.95432 8.11148 7.84802 8.15605 7.73689 8.15702C7.62576 8.15798 7.5187 8.11527 7.43877 8.03806L5.71273 6.31202ZM28.5612 27.9619L26.8351 26.2358C26.7552 26.1586 26.6481 26.1159 26.537 26.1169C26.4259 26.1178 26.3196 26.1624 26.241 26.241C26.1624 26.3196 26.1178 26.4259 26.1169 26.537C26.1159 26.6481 26.1586 26.7552 26.2358 26.8351L27.9619 28.5612C28.0419 28.6384 28.1489 28.6812 28.2601 28.6802C28.3712 28.6792 28.4775 28.6347 28.5561 28.5561C28.6347 28.4775 28.6792 28.3712 28.6802 28.2601C28.6812 28.1489 28.6384 28.0419 28.5612 27.9619ZM34.9531 17.5762C35.0655 17.5762 35.1733 17.6208 35.2528 17.7003C35.3323 17.7798 35.377 17.8876 35.377 18C35.377 18.1124 35.3323 18.2202 35.2528 18.2997C35.1733 18.3792 35.0655 18.4238 34.9531 18.4238H30.071C29.9586 18.4238 29.8508 18.3792 29.7714 18.2997C29.6919 18.2202 29.6472 18.1124 29.6472 18C29.6472 17.8876 29.6919 17.7798 29.7714 17.7003C29.8508 17.6208 29.9586 17.5762 30.071 17.5762H34.9531ZM29.688 5.71273C29.7271 5.67249 29.7739 5.64044 29.8255 5.61842C29.8772 5.59641 29.9327 5.58487 29.9888 5.58449C30.045 5.58411 30.1006 5.59488 30.1526 5.61618C30.2045 5.63749 30.2517 5.6689 30.2914 5.7086C30.3311 5.74829 30.3625 5.79548 30.3838 5.84742C30.4051 5.89936 30.4159 5.95502 30.4155 6.01116C30.4152 6.0673 30.4036 6.12281 30.3816 6.17445C30.3596 6.2261 30.3276 6.27286 30.2873 6.31202L28.5612 8.03806C28.4812 8.11527 28.3742 8.15798 28.263 8.15702C28.1519 8.15605 28.0456 8.11148 27.967 8.0329C27.8885 7.95432 27.8439 7.84802 27.8429 7.73689C27.8419 7.62576 27.8847 7.5187 27.9619 7.43877L29.688 5.71273ZM18.4238 34.9531C18.4238 35.0655 18.3792 35.1733 18.2997 35.2528C18.2202 35.3323 18.1124 35.377 18 35.377C17.8876 35.377 17.7798 35.3323 17.7003 35.2528C17.6208 35.1733 17.5762 35.0655 17.5762 34.9531V30.071C17.5762 29.9586 17.6208 29.8508 17.7003 29.7713C17.7798 29.6918 17.8876 29.6472 18 29.6472C18.1124 29.6472 18.2202 29.6918 18.2997 29.7713C18.3792 29.8508 18.4238 29.9586 18.4238 30.071V34.9531ZM3.8731 14.6529C3.81858 14.6393 3.7673 14.615 3.72226 14.5814C3.67722 14.5478 3.63932 14.5056 3.61077 14.4572C3.58222 14.4088 3.56358 14.3552 3.55596 14.2996C3.54834 14.2439 3.55187 14.1873 3.56636 14.133C3.58085 14.0787 3.60601 14.0279 3.64036 13.9834C3.67471 13.9389 3.71756 13.9017 3.76643 13.874C3.8153 13.8463 3.8692 13.8286 3.92499 13.8219C3.98078 13.8152 4.03734 13.8197 4.09137 13.8351L5.27032 14.151C5.32457 14.1648 5.37554 14.1893 5.42027 14.2229C5.465 14.2566 5.50261 14.2988 5.53093 14.3471C5.55924 14.3954 5.57768 14.4488 5.5852 14.5043C5.59272 14.5598 5.58916 14.6162 5.57472 14.6703C5.56029 14.7244 5.53526 14.7751 5.5011 14.8194C5.46694 14.8638 5.42432 14.9009 5.37571 14.9287C5.3271 14.9564 5.27346 14.9743 5.21791 14.9812C5.16235 14.9881 5.10598 14.9839 5.05205 14.9689L3.8731 14.6529ZM4.09137 22.1649C4.03746 22.1799 3.98111 22.1841 3.92557 22.1772C3.87003 22.1703 3.81641 22.1525 3.76781 22.1247C3.71921 22.097 3.6766 22.0599 3.64244 22.0155C3.60828 21.9712 3.58325 21.9205 3.5688 21.8665C3.55435 21.8124 3.55077 21.756 3.55826 21.7005C3.56575 21.6451 3.58416 21.5916 3.61244 21.5433C3.64071 21.495 3.67828 21.4528 3.72298 21.4191C3.76767 21.3855 3.8186 21.361 3.87282 21.3471L5.05177 21.0312C5.16022 21.0022 5.27575 21.0175 5.37293 21.0737C5.47011 21.1299 5.54099 21.2224 5.56997 21.3309C5.59895 21.4393 5.58366 21.5548 5.52747 21.652C5.47127 21.7492 5.37878 21.8201 5.27032 21.8491L4.09137 22.1649ZM14.6529 32.1269C14.639 32.1811 14.6145 32.232 14.5809 32.2767C14.5472 32.3214 14.505 32.359 14.4567 32.3873C14.4084 32.4156 14.3549 32.434 14.2995 32.4415C14.244 32.4489 14.1876 32.4454 14.1335 32.4309C14.0795 32.4165 14.0288 32.3914 13.9845 32.3573C13.9402 32.3231 13.903 32.2805 13.8753 32.2319C13.8475 32.1833 13.8297 32.1297 13.8228 32.0741C13.8159 32.0186 13.8201 31.9623 13.8351 31.9083L14.151 30.7294C14.18 30.6209 14.2509 30.5284 14.348 30.4722C14.4452 30.4161 14.5608 30.4008 14.6692 30.4297C14.7777 30.4587 14.8702 30.5296 14.9264 30.6268C14.9825 30.724 14.9978 30.8395 14.9689 30.948L14.6529 32.1269ZM22.165 31.9086C22.1793 31.9623 22.1829 32.0183 22.1756 32.0734C22.1684 32.1285 22.1503 32.1817 22.1225 32.2298C22.0946 32.2779 22.0576 32.3201 22.0135 32.3539C21.9694 32.3877 21.919 32.4125 21.8653 32.4268C21.8116 32.4412 21.7556 32.4448 21.7005 32.4375C21.6454 32.4302 21.5923 32.4122 21.5442 32.3843C21.496 32.3565 21.4539 32.3195 21.4201 32.2754C21.3863 32.2312 21.3615 32.1809 21.3471 32.1272L21.0312 30.9482C21.0022 30.8398 21.0175 30.7243 21.0737 30.6271C21.1299 30.5299 21.2224 30.459 21.3309 30.43C21.4393 30.401 21.5548 30.4163 21.652 30.4725C21.7492 30.5287 21.8201 30.6212 21.8491 30.7297L22.165 31.9086ZM32.1269 21.3471C32.1811 21.361 32.232 21.3855 32.2767 21.4191C32.3214 21.4528 32.359 21.495 32.3873 21.5433C32.4156 21.5916 32.434 21.6451 32.4415 21.7005C32.4489 21.756 32.4454 21.8124 32.4309 21.8665C32.4165 21.9205 32.3914 21.9712 32.3573 22.0155C32.3231 22.0599 32.2805 22.097 32.2319 22.1247C32.1833 22.1525 32.1297 22.1703 32.0741 22.1772C32.0186 22.1841 31.9623 22.1799 31.9083 22.1649L30.7294 21.849C30.6209 21.82 30.5284 21.7491 30.4722 21.652C30.4161 21.5548 30.4008 21.4392 30.4297 21.3308C30.4587 21.2223 30.5296 21.1298 30.6268 21.0736C30.724 21.0175 30.8395 21.0022 30.948 21.0311L32.1269 21.3471ZM31.9086 13.8351C31.9625 13.8201 32.0189 13.8159 32.0744 13.8228C32.13 13.8297 32.1836 13.8475 32.2322 13.8753C32.2808 13.903 32.3234 13.9402 32.3576 13.9845C32.3917 14.0288 32.4167 14.0795 32.4312 14.1335C32.4456 14.1876 32.4492 14.244 32.4417 14.2995C32.4343 14.3549 32.4158 14.4084 32.3876 14.4567C32.3593 14.505 32.3217 14.5472 32.277 14.5809C32.2323 14.6145 32.1814 14.639 32.1272 14.6529L30.9482 14.9688C30.8398 14.9978 30.7243 14.9825 30.6271 14.9263C30.5299 14.8701 30.459 14.7776 30.43 14.6691C30.401 14.5607 30.4163 14.4452 30.4725 14.348C30.5287 14.2508 30.6212 14.1799 30.7297 14.1509L31.9086 13.8351ZM21.3471 3.8731C21.3771 3.76577 21.4481 3.67457 21.5449 3.6193C21.6416 3.56402 21.7563 3.54914 21.864 3.57788C21.9716 3.60661 22.0636 3.67664 22.12 3.77278C22.1763 3.86891 22.1925 3.98339 22.165 4.09137L21.849 5.27032C21.8354 5.32485 21.8111 5.37612 21.7775 5.42116C21.744 5.4662 21.7017 5.50411 21.6533 5.53266C21.6049 5.56121 21.5514 5.57984 21.4957 5.58746C21.44 5.59509 21.3834 5.59155 21.3291 5.57706C21.2748 5.56257 21.224 5.53742 21.1795 5.50307C21.135 5.46872 21.0979 5.42586 21.0701 5.37699C21.0424 5.32812 21.0247 5.27422 21.018 5.21843C21.0113 5.16264 21.0158 5.10608 21.0312 5.05205L21.3471 3.8731ZM13.8351 4.09137C13.8201 4.03746 13.8159 3.98111 13.8228 3.92557C13.8297 3.87003 13.8475 3.81641 13.8753 3.76781C13.903 3.71921 13.9402 3.6766 13.9845 3.64244C14.0288 3.60828 14.0795 3.58325 14.1335 3.5688C14.1876 3.55435 14.244 3.55077 14.2995 3.55826C14.3549 3.56575 14.4084 3.58416 14.4567 3.61244C14.505 3.64071 14.5472 3.67828 14.5809 3.72298C14.6145 3.76767 14.639 3.8186 14.6529 3.87282L14.9688 5.05177C14.9838 5.10568 14.988 5.16203 14.9811 5.21757C14.9742 5.27311 14.9564 5.32673 14.9286 5.37533C14.9009 5.42393 14.8637 5.46654 14.8194 5.5007C14.7751 5.53486 14.7244 5.55989 14.6703 5.57434C14.6163 5.58879 14.5599 5.59237 14.5044 5.58488C14.449 5.57739 14.3955 5.55898 14.3472 5.53071C14.2989 5.50243 14.2567 5.46486 14.223 5.42017C14.1894 5.37547 14.1649 5.32454 14.151 5.27032L13.8351 4.09137ZM17.5762 1.04688C17.5762 0.934469 17.6208 0.826666 17.7003 0.747183C17.7798 0.6677 17.8876 0.623047 18 0.623047C18.1124 0.623047 18.2202 0.6677 18.2997 0.747183C18.3792 0.826666 18.4238 0.934469 18.4238 1.04688V5.92902C18.4238 6.04143 18.3792 6.14923 18.2997 6.22871C18.2202 6.3082 18.1124 6.35285 18 6.35285C17.8876 6.35285 17.7798 6.3082 17.7003 6.22871C17.6208 6.14923 17.5762 6.04143 17.5762 5.92902V1.04688Z" fill="#567656"/>
</svg>
