<svg width="32" height="34" viewBox="0 0 32 34" fill="none" xmlns="http://www.w3.org/2000/svg">
<path d="M12.8978 20.4954C12.0219 20.4954 11.2138 20.0942 10.6882 19.3934C10.5017 19.1448 10.547 18.7888 10.7956 18.6023C11.0442 18.4158 11.4003 18.461 11.5867 18.7097C11.9032 19.1278 12.3779 19.3652 12.8978 19.3652C13.4177 19.3652 13.8924 19.1278 14.2088 18.7097C14.3953 18.461 14.7513 18.4102 15 18.6023C15.2486 18.7888 15.2995 19.1448 15.1073 19.3934C14.5761 20.0942 13.768 20.4954 12.8978 20.4954ZM20.9901 18.7097C20.6736 19.1278 20.1989 19.3652 19.679 19.3652C19.1591 19.3652 18.6845 19.1278 18.368 18.7097C18.1815 18.461 17.8255 18.4102 17.5768 18.6023C17.3282 18.7888 17.2773 19.1448 17.4695 19.3934C18.0007 20.0942 18.8088 20.4954 19.679 20.4954C20.5493 20.4954 21.363 20.0942 21.8886 19.3934C22.0751 19.1448 22.0299 18.7888 21.7812 18.6023C21.5326 18.4158 21.1766 18.461 20.9901 18.7097ZM17.5429 24.5472C17.2604 24.8071 16.7914 24.9597 16.2941 24.9597C15.7968 24.9597 15.3277 24.8071 15.0452 24.5472C14.8135 24.3381 14.4575 24.3551 14.2484 24.5867C14.0393 24.8184 14.0562 25.1745 14.2879 25.3835C14.7796 25.83 15.5142 26.0843 16.2941 26.0843C17.0739 26.0843 17.8085 25.83 18.3002 25.3835C18.5319 25.1745 18.5488 24.8184 18.3397 24.5867C18.1307 24.3551 17.7746 24.3381 17.5429 24.5472ZM31.032 28.8646C31.032 29.0963 30.8851 29.3054 30.6647 29.3845C28.8789 30.0513 28.0821 31.9783 28.0708 31.9953C27.9861 32.21 27.777 32.3456 27.5453 32.3456C27.3136 32.3456 27.1102 32.2043 27.0197 31.9953C26.2399 30.057 24.4485 29.3958 24.4316 29.3901C24.2168 29.311 24.0642 29.1076 24.0586 28.8815C24.0473 28.6498 24.1829 28.4351 24.392 28.3447C26.432 27.4405 26.9858 25.8243 27.0084 25.7565C27.0819 25.5248 27.2966 25.3722 27.5396 25.3666C27.7657 25.344 27.9974 25.5135 28.0765 25.7396C28.7094 27.5196 30.6534 28.3221 30.6703 28.3277C30.8851 28.4125 31.0263 28.6272 31.0263 28.8589L31.032 28.8646ZM29.2689 28.842C28.7264 28.4803 28.0539 27.9322 27.5453 27.1636C27.1949 27.6835 26.6468 28.3164 25.8217 28.8533C26.3642 29.2093 27.031 29.7688 27.5622 30.5882C27.9239 30.04 28.4834 29.3619 29.2689 28.842ZM21.6004 29.2093V32.826C21.6004 33.1368 21.3461 33.3911 21.0353 33.3911C20.7245 33.3911 20.4702 33.1368 20.4702 32.826V29.8648C19.193 30.4921 17.769 30.8481 16.2884 30.8481C16.2319 30.8481 16.1754 30.8481 16.1132 30.8481C14.5988 30.8198 13.1464 30.4073 11.8523 29.6953V32.826C11.8523 33.1368 11.598 33.3911 11.2872 33.3911C10.9764 33.3911 10.7221 33.1368 10.7221 32.826V28.9663C9.39414 27.9661 8.30914 26.6155 7.61406 25.0219C6.51776 26.1012 6.01482 27.3275 6.00917 27.3445C5.9244 27.5592 5.71531 27.7005 5.48362 27.7005C5.25193 27.7005 5.04284 27.5592 4.95807 27.3445C3.87873 24.6602 1.36401 23.7221 1.34141 23.7165C1.12667 23.6374 0.97409 23.4339 0.968439 23.2022C0.962788 22.9705 1.09276 22.7615 1.30185 22.6654C2.88979 21.959 3.82787 20.9475 4.35341 20.1676C4.0087 19.0431 3.87873 18.1898 3.87307 18.1502C2.83893 12.6743 6.4556 8.78078 6.60818 8.6169C7.19589 7.89357 7.87401 7.28326 8.59169 6.76336C9.21896 3.23711 12.3214 0.609375 15.9211 0.609375H16.6557C20.2667 0.609375 23.3748 3.24841 23.9908 6.78596C24.7141 7.31151 25.4035 7.91617 25.9969 8.64516C26.1212 8.77513 29.7379 12.6687 28.7038 18.1672C28.6755 18.3423 27.9465 23.044 25.251 25.0671C25.1718 25.1292 25.0814 25.1575 24.9854 25.1688C24.2507 26.8302 23.064 28.2204 21.5947 29.2036L21.6004 29.2093ZM20.4137 6.13609C20.5323 6.39039 20.6171 6.63904 20.6623 6.84812C21.0466 9.45326 19.6056 10.6682 18.9727 11.0695C18.7749 11.1938 18.5488 11.2842 18.3115 11.3577C25.0419 13.9345 25.104 18.3197 25.0871 18.8453L25.3979 23.3774C27.0706 21.36 27.5905 18.0259 27.5905 17.9863C28.5229 13.0473 25.1832 9.4363 25.1492 9.4024C23.8382 7.7975 22.0525 6.78596 20.408 6.14175L20.4137 6.13609ZM9.9988 5.8818C13.0617 4.21474 16.2884 3.93219 16.4805 3.92089C17.4921 3.85307 18.2889 4.08477 18.9048 4.45208C20.0068 4.74594 21.3122 5.20932 22.5893 5.9044C21.6908 3.46315 19.34 1.75089 16.6557 1.75089H15.9211C13.2482 1.75089 10.903 3.4575 9.9988 5.88745V5.8818ZM4.98633 17.9637C4.98633 17.9637 5.03719 18.2915 5.15021 18.7662C5.24063 18.6984 5.35365 18.6588 5.47232 18.6588C5.70966 18.6532 5.93005 18.8057 6.01482 19.0318C6.31432 19.8681 6.81162 20.5406 7.34281 21.0774L7.49539 18.8396C7.47279 18.2293 7.54625 12.4935 17.8255 10.3179C18.0289 10.2727 18.2098 10.2048 18.368 10.1031C19.0518 9.67365 19.809 8.79208 19.5491 7.04591C19.5378 7.0007 19.0179 4.87591 16.5597 5.03979C16.5088 5.03979 10.5413 5.57099 7.45583 9.36284C7.39367 9.43065 4.05956 13.0417 4.98633 17.9581V17.9637ZM8.16786 23.157C7.35412 22.6597 6.24086 21.8008 5.47232 20.518C4.99763 21.2922 4.15563 22.332 2.77112 23.1683C3.57357 23.6543 4.68117 24.5076 5.49492 25.8865C5.99787 25.0671 6.86247 23.9369 8.16786 23.1514V23.157ZM24.2959 23.8239L23.9569 18.8848C23.9569 18.8848 23.9569 18.834 23.9569 18.8057C23.9682 18.6192 24.1095 14.121 16.2884 11.8663C8.47867 14.1154 8.6256 18.6079 8.63125 18.8114V18.8848L8.41651 21.9647C9.08333 22.4224 9.62018 22.6428 9.63148 22.6484C9.84622 22.7332 9.9875 22.9479 9.9875 23.1796C9.9875 23.4113 9.84057 23.6204 9.62018 23.7052C9.21896 23.8578 8.85729 24.0555 8.52953 24.2759C9.79537 27.4857 12.7961 29.6614 16.1358 29.7235H16.2884C19.9446 29.7235 23.2053 27.3218 24.2959 23.8295V23.8239Z" fill="#567656"/>
</svg>
