<svg width="34" height="34" viewBox="0 0 34 34" fill="none" xmlns="http://www.w3.org/2000/svg">
<path d="M4.46092 23.9395C4.39918 23.9525 4.33653 23.9633 4.27295 23.9718C2.89304 24.156 1.62502 23.1867 1.44079 21.8068L1.04345 18.8302C0.859231 17.4503 1.8286 16.1823 3.20851 15.998" stroke="#567656" stroke-width="1.05957" stroke-miterlimit="10" stroke-linecap="round" stroke-linejoin="round"/>
<path d="M15.3447 23.8592V19.4738C15.3447 18.3075 16.0874 17.2706 17.1917 16.8953L17.526 16.7767C18.8997 16.3097 20.4063 16.4401 21.6794 17.1361L22.4718 17.5692" stroke="#567656" stroke-width="1.05957" stroke-miterlimit="10" stroke-linecap="round" stroke-linejoin="round"/>
<path d="M12.7283 17.1499L11.6302 16.7767C10.2564 16.3097 8.74985 16.4401 7.47674 17.1361L6.68433 17.5692" stroke="#567656" stroke-width="1.05957" stroke-miterlimit="10" stroke-linecap="round" stroke-linejoin="round"/>
<path d="M9.70585 21.6593C10.41 21.6593 10.9808 21.0885 10.9808 20.3843C10.9808 19.6802 10.41 19.1094 9.70585 19.1094C9.00172 19.1094 8.43091 19.6802 8.43091 20.3843C8.43091 21.0885 9.00172 21.6593 9.70585 21.6593Z" fill="#567656"/>
<path d="M19.427 21.6593C20.1312 21.6593 20.702 21.0885 20.702 20.3843C20.702 19.6802 20.1312 19.1094 19.427 19.1094C18.7229 19.1094 18.1521 19.6802 18.1521 20.3843C18.1521 21.0885 18.7229 21.6593 19.427 21.6593Z" fill="#567656"/>
<path d="M19.876 20.1797L21.0823 19.7891" stroke="#567656" stroke-width="1.05957" stroke-miterlimit="10" stroke-linecap="round" stroke-linejoin="round"/>
<path d="M9.27367 20.1797L8.06738 19.7891" stroke="#567656" stroke-width="1.05957" stroke-miterlimit="10" stroke-linecap="round" stroke-linejoin="round"/>
<path d="M24.0025 25.0011C23.1686 27.1075 21.9945 28.8956 20.0165 30.5828C18.2168 32.1179 16.2301 33.0435 14.5782 33.0435C12.9262 33.0435 10.9395 32.1179 9.13982 30.5828C5.90276 27.8216 4.06207 24.7905 4.06207 20.5357L2.98449 13.61C2.30008 6.68862 7.73702 0.6875 14.6922 0.6875C18.4051 0.6875 21.8602 2.39178 24.0026 5.01853" stroke="#567656" stroke-width="1.05957" stroke-miterlimit="10" stroke-linecap="round" stroke-linejoin="round"/>
<path d="M19.1291 7.45898C19.1291 7.45898 7.55835 8.99614 3.78296 17.758" stroke="#567656" stroke-width="1.05957" stroke-miterlimit="10" stroke-linecap="round" stroke-linejoin="round"/>
<path d="M18.1523 9.9873C18.1523 9.9873 21.4815 10.6543 24.0028 14.2115" stroke="#567656" stroke-width="1.05957" stroke-miterlimit="10" stroke-linecap="round" stroke-linejoin="round"/>
<path d="M11.7373 26.1758C12.569 27.0439 13.826 26.0369 14.5755 26.7699C15.4197 26.0832 16.4073 26.9975 17.4138 26.1758" stroke="#567656" stroke-width="1.05957" stroke-miterlimit="10" stroke-linecap="round" stroke-linejoin="round"/>
<path d="M13.8848 28.6113H15.3449" stroke="#567656" stroke-width="1.05957" stroke-miterlimit="10" stroke-linecap="round" stroke-linejoin="round"/>
<path d="M27.7134 11.6104H32.9178" stroke="#567656" stroke-width="1.05957" stroke-miterlimit="10" stroke-linecap="round" stroke-linejoin="round"/>
<path d="M27.7131 22.3164H32.9175" stroke="#567656" stroke-width="1.05957" stroke-miterlimit="10" stroke-linecap="round" stroke-linejoin="round"/>
<path d="M27.6519 0.759766H32.979V33.3127H27.6519V0.759766Z" stroke="#567656" stroke-width="1.05957" stroke-miterlimit="10" stroke-linecap="round" stroke-linejoin="round"/>
<path d="M31.1436 33.1347L27.7134 29.1846" stroke="#567656" stroke-width="1.05957" stroke-miterlimit="10" stroke-linecap="round" stroke-linejoin="round"/>
<path d="M32.8701 30.8607L27.7825 25.002" stroke="#567656" stroke-width="1.05957" stroke-miterlimit="10" stroke-linecap="round" stroke-linejoin="round"/>
<path d="M32.8702 26.5983L29.24 22.418" stroke="#567656" stroke-width="1.05957" stroke-miterlimit="10" stroke-linecap="round" stroke-linejoin="round"/>
<path d="M32.6418 22.3173L27.6858 16.6104" stroke="#567656" stroke-width="1.05957" stroke-miterlimit="10" stroke-linecap="round" stroke-linejoin="round"/>
<path d="M32.8702 17.3243L27.9863 11.7002" stroke="#567656" stroke-width="1.05957" stroke-miterlimit="10" stroke-linecap="round" stroke-linejoin="round"/>
</svg>
