<svg width="38" height="38" viewBox="0 0 38 38" fill="none" xmlns="http://www.w3.org/2000/svg">
<path d="M13.349 29.737C13.2188 29.7369 13.0926 29.6918 12.9918 29.6095C12.891 29.5271 12.8218 29.4124 12.7957 29.2849C12.7742 29.1843 10.5472 19 2.61198 19C2.4621 19 2.31837 18.9405 2.21239 18.8345C2.10641 18.7285 2.04688 18.5848 2.04688 18.4349C2.04688 18.285 2.10641 18.1413 2.21239 18.0353C2.31837 17.9293 2.4621 17.8698 2.61198 17.8698C10.5602 17.8698 12.7742 7.68548 12.7957 7.5849C12.8218 7.45735 12.891 7.3427 12.9918 7.26033C13.0926 7.17796 13.2188 7.13292 13.349 7.13281C13.4791 7.13292 13.6053 7.17796 13.7061 7.26033C13.8069 7.3427 13.8762 7.45735 13.9022 7.5849C13.9237 7.68548 16.1507 17.8698 24.0859 17.8698C24.2358 17.8698 24.3795 17.9293 24.4855 18.0353C24.5915 18.1413 24.651 18.285 24.651 18.4349C24.651 18.5848 24.5915 18.7285 24.4855 18.8345C24.3795 18.9405 24.2358 19 24.0859 19C16.1377 19 13.9237 29.1843 13.9022 29.2849C13.8762 29.4124 13.8069 29.5271 13.7061 29.6095C13.6053 29.6918 13.4791 29.7369 13.349 29.737ZM5.89467 18.4349C10.2511 20.0251 12.4324 24.5945 13.349 27.1906C14.2656 24.5945 16.4469 20.0251 20.8032 18.4349C16.4469 16.8447 14.2656 12.2753 13.349 9.67917C12.4324 12.2753 10.2511 16.8447 5.89467 18.4349Z" fill="#567656"/>
<path d="M25.2163 35.9539C25.0736 35.9543 24.9361 35.9008 24.8313 35.804C24.7265 35.7073 24.6621 35.5745 24.6512 35.4323C24.503 34.0509 23.9182 32.7527 22.9819 31.7263C22.0455 30.6999 20.8063 29.9988 19.4443 29.7247C19.3177 29.6977 19.2043 29.6281 19.1229 29.5275C19.0415 29.4269 18.9971 29.3015 18.9971 29.1721C18.9971 29.0427 19.0415 28.9172 19.1229 28.8166C19.2043 28.716 19.3177 28.6464 19.4443 28.6194C20.8008 28.3341 22.0334 27.6297 22.9678 26.6057C23.9022 25.5817 24.491 24.2899 24.6512 22.913C24.6622 22.7711 24.7263 22.6386 24.8308 22.5419C24.9352 22.4453 25.0723 22.3916 25.2146 22.3916C25.3569 22.3916 25.4939 22.4453 25.5984 22.5419C25.7028 22.6386 25.767 22.7711 25.778 22.913C25.9262 24.2944 26.5109 25.5926 27.4472 26.619C28.3836 27.6454 29.6228 28.3465 30.9848 28.6205C31.1114 28.6475 31.2249 28.7171 31.3063 28.8177C31.3877 28.9183 31.4321 29.0438 31.4321 29.1732C31.4321 29.3026 31.3877 29.4281 31.3063 29.5287C31.2249 29.6293 31.1114 29.6989 30.9848 29.7259C29.6289 30.0118 28.3971 30.7165 27.4634 31.7404C26.5297 32.7644 25.9413 34.0558 25.7814 35.4323C25.7704 35.5745 25.706 35.7073 25.6012 35.804C25.4964 35.9008 25.3589 35.9543 25.2163 35.9539ZM21.3798 29.1726C23.1368 29.9738 24.5129 31.4277 25.2163 33.2261C25.9196 31.4277 27.2957 29.9738 29.0528 29.1726C27.2957 28.3715 25.9196 26.9176 25.2163 25.1191C24.5129 26.9176 23.1368 28.3715 21.3798 29.1726Z" fill="#567656"/>
<path d="M28.0416 19C27.8991 19.0004 27.7617 18.947 27.6569 18.8504C27.5521 18.7537 27.4876 18.6211 27.4765 18.479C27.271 16.6687 26.4896 14.9723 25.2474 13.6396C24.0053 12.3069 22.3679 11.4083 20.5766 11.0761C20.4495 11.0496 20.3353 10.9802 20.2534 10.8794C20.1714 10.7787 20.1267 10.6527 20.1267 10.5229C20.1267 10.393 20.1714 10.2671 20.2534 10.1663C20.3353 10.0656 20.4495 9.99611 20.5766 9.96964C22.3679 9.63747 24.0053 8.73886 25.2474 7.40613C26.4896 6.0734 27.271 4.37701 27.4765 2.56677C27.4879 2.42487 27.5524 2.29249 27.6572 2.1961C27.762 2.09971 27.8993 2.04642 28.0416 2.04688C28.1842 2.04644 28.3216 2.09989 28.4264 2.19652C28.5312 2.29314 28.5956 2.4258 28.6067 2.5679C28.8123 4.37814 29.5936 6.07453 30.8358 7.40726C32.078 8.73999 33.7153 9.6386 35.5067 9.97077C35.6338 9.99724 35.748 10.0667 35.8299 10.1675C35.9118 10.2682 35.9566 10.3941 35.9566 10.524C35.9566 10.6539 35.9118 10.7798 35.8299 10.8805C35.748 10.9813 35.6338 11.0508 35.5067 11.0772C33.7153 11.4094 32.078 12.308 30.8358 13.6408C29.5936 14.9735 28.8123 16.6699 28.6067 18.4801C28.5954 18.622 28.5308 18.7544 28.4261 18.8508C28.3213 18.9472 28.184 19.0005 28.0416 19ZM22.65 10.5234C23.8962 11.0212 25.0218 11.7792 25.9516 12.7468C26.8813 13.7144 27.5939 14.8693 28.0416 16.1344C28.4894 14.8693 29.2019 13.7144 30.1317 12.7468C31.0615 11.7792 32.1871 11.0212 33.4333 10.5234C32.1871 10.0257 31.0615 9.26766 30.1317 8.30006C29.2019 7.33246 28.4894 6.17755 28.0416 4.91252C27.5939 6.17755 26.8813 7.33246 25.9516 8.30006C25.0218 9.26766 23.8962 10.0257 22.65 10.5234Z" fill="#567656"/>
</svg>
