<svg width="26" height="21" viewBox="0 0 26 21" fill="none" xmlns="http://www.w3.org/2000/svg">
<path fill-rule="evenodd" clip-rule="evenodd" d="M22.0891 10.2085V16.0898C22.0891 16.9843 21.7338 17.8423 21.1012 18.4749C20.4687 19.1074 19.6107 19.4627 18.7161 19.4627C14.7466 19.4627 8.65461 19.4627 4.68508 19.4627C3.79053 19.4627 2.93256 19.1074 2.30012 18.4749C1.66754 17.8423 1.3121 16.9843 1.3121 16.0898V9.46584L6.25596 9.50566C7.4049 9.49157 8.52078 9.19181 9.68137 8.96181C9.6815 8.96181 11.3668 11.5405 11.3668 11.5405C11.4669 11.6935 11.635 11.7886 11.8179 11.7957C12.0006 11.8026 12.1755 11.7205 12.2869 11.5754L14.2473 9.02344C15.0531 9.20278 15.775 9.40773 16.4845 9.50092C16.5102 9.50431 16.5362 9.50593 16.5621 9.50566L18.799 9.48941C19.1104 9.4871 19.3616 9.23245 19.3593 8.9209C19.357 8.60949 19.1023 8.35835 18.7908 8.36065L16.5937 8.37664C15.8213 8.27071 15.0331 8.02838 14.1296 7.84402C13.9181 7.80095 13.7006 7.88209 13.5692 8.0533L11.8764 10.2569L10.4196 8.02811C10.2957 7.83834 10.07 7.74121 9.84689 7.78144C8.61967 8.00319 7.45542 8.36038 6.25109 8.37691C6.24729 8.37691 0.752264 8.33261 0.752264 8.33261C0.601772 8.33139 0.457105 8.39032 0.350231 8.49624C0.243356 8.60217 0.18335 8.74643 0.18335 8.89692V16.0898C0.18335 17.2837 0.65758 18.4288 1.50188 19.273C2.34617 20.1173 3.49118 20.5915 4.68508 20.5915H18.7161C19.91 20.5915 21.055 20.1173 21.8993 19.273C22.7436 18.4288 23.2179 17.2837 23.2179 16.0898V10.2085C23.2179 9.89699 22.965 9.6441 22.6535 9.6441C22.342 9.6441 22.0891 9.89699 22.0891 10.2085Z" fill="#567656"/>
<path fill-rule="evenodd" clip-rule="evenodd" d="M0.847091 13.9457C1.05881 13.9507 1.40327 13.9552 2.88475 13.9552C3.7136 13.9552 4.29579 13.712 4.87554 13.4593C5.32512 13.2633 5.77226 13.0575 6.41513 13.0575C6.56901 13.0575 6.68875 13.1545 6.81486 13.2736C7.03525 13.4816 7.24344 13.7703 7.47534 14.0831C8.32303 15.2259 9.41967 16.6245 11.7096 16.6479C13.9408 16.6708 15.046 15.235 15.9066 14.0481C16.1421 13.7234 16.3547 13.4231 16.5789 13.2063C16.7065 13.0829 16.8258 12.9803 16.9795 12.9803C17.6192 12.9803 18.0716 13.198 18.527 13.4074C19.1165 13.6783 19.7089 13.9419 20.5371 13.9551C21.4896 13.9702 22.0433 13.77 22.6033 13.7435C22.9144 13.7287 23.1552 13.464 23.1403 13.1529C23.1255 12.8417 22.8609 12.6012 22.5498 12.6159C22.0091 12.6415 21.475 12.8411 20.5551 12.8264C19.9115 12.8161 19.4565 12.5924 18.9986 12.3817C18.4065 12.1096 17.8114 11.8516 16.9795 11.8516C16.6174 11.8516 16.29 11.9838 15.983 12.2284C15.6502 12.4934 15.3353 12.9131 14.9929 13.3855C14.3119 14.3244 13.4863 15.5373 11.7212 15.5192C9.89445 15.5005 9.05814 14.3224 8.38208 13.4107C8.04236 12.9525 7.7319 12.5471 7.40193 12.2913C7.09945 12.0566 6.77626 11.9288 6.41513 11.9288C5.58628 11.9288 5.00409 12.1718 4.42434 12.4245C3.97476 12.6207 3.52762 12.8263 2.88475 12.8263C1.42251 12.8263 1.08251 12.8221 0.873504 12.8172C0.562092 12.8099 0.303371 13.0568 0.296057 13.3683C0.288742 13.6797 0.535678 13.9385 0.847091 13.9457Z" fill="#567656"/>
<path fill-rule="evenodd" clip-rule="evenodd" d="M3.3812 16.6483H4.37301C4.68456 16.6483 4.93745 16.3954 4.93745 16.0838C4.93745 15.7724 4.68456 15.5195 4.37301 15.5195H3.3812C3.06979 15.5195 2.81689 15.7724 2.81689 16.0838C2.81689 16.3954 3.06979 16.6483 3.3812 16.6483Z" fill="#567656"/>
<path fill-rule="evenodd" clip-rule="evenodd" d="M7.25683 18.8416H8.2485C8.56005 18.8416 8.81294 18.5887 8.81294 18.2772C8.81294 17.9658 8.56005 17.7129 8.2485 17.7129H7.25683C6.94528 17.7129 6.69238 17.9658 6.69238 18.2772C6.69238 18.5887 6.94528 18.8416 7.25683 18.8416Z" fill="#567656"/>
<path fill-rule="evenodd" clip-rule="evenodd" d="M14.5925 18.2353H15.5842C15.8957 18.2353 16.1486 17.9824 16.1486 17.6709C16.1486 17.3593 15.8957 17.1064 15.5842 17.1064H14.5925C14.281 17.1064 14.0281 17.3593 14.0281 17.6709C14.0281 17.9824 14.281 18.2353 14.5925 18.2353Z" fill="#567656"/>
<path fill-rule="evenodd" clip-rule="evenodd" d="M19.3777 16.327H20.3695C20.6809 16.327 20.9338 16.0741 20.9338 15.7627C20.9338 15.4511 20.6809 15.1982 20.3695 15.1982H19.3777C19.0661 15.1982 18.8132 15.4511 18.8132 15.7627C18.8132 16.0741 19.0661 16.327 19.3777 16.327Z" fill="#567656"/>
<path fill-rule="evenodd" clip-rule="evenodd" d="M21.4256 11.192C21.4256 11.192 22.981 11.2411 24.4979 9.27681C25.6599 7.77204 25.8165 5.655 25.8165 2.32685C25.8165 2.02872 25.5846 1.78191 25.287 1.76349C22.9481 1.61842 21.8486 0.414625 21.8486 0.414625C21.7415 0.293257 21.5873 0.223633 21.4255 0.223633C21.2635 0.223633 21.1093 0.293257 21.0022 0.414625C21.0022 0.414625 19.9029 1.61842 17.5642 1.76349C17.2666 1.78191 17.0347 2.02872 17.0347 2.32685C17.0347 5.65486 17.1911 7.77204 18.3533 9.27681C19.8703 11.2411 21.4255 11.192 21.4255 11.192H21.4256ZM21.4256 10.0633H21.4245C21.4225 10.0631 20.3479 10.0129 19.2467 8.5868C18.2641 7.31447 18.1715 5.53824 18.1641 2.84037C19.8145 2.63095 20.8843 1.9748 21.4256 1.54758C21.9667 1.9748 23.0367 2.63095 24.6871 2.84037C24.6796 5.53837 24.5871 7.31447 23.6045 8.5868H23.6044C22.5018 10.0148 21.4256 10.0633 21.4256 10.0633Z" fill="#567656"/>
<path fill-rule="evenodd" clip-rule="evenodd" d="M22.6902 5.14355H20.1615C19.8501 5.14355 19.5972 5.39645 19.5972 5.70786C19.5972 6.01941 19.8501 6.27231 20.1615 6.27231H22.6902C23.0017 6.27231 23.2546 6.01941 23.2546 5.70786C23.2546 5.39645 23.0017 5.14355 22.6902 5.14355Z" fill="#567656"/>
<path fill-rule="evenodd" clip-rule="evenodd" d="M20.8613 4.44321V6.9719C20.8613 7.28345 21.1142 7.53635 21.4256 7.53635C21.7372 7.53635 21.9901 7.28345 21.9901 6.9719V4.44321C21.9901 4.1318 21.7372 3.87891 21.4256 3.87891C21.1142 3.87891 20.8613 4.1318 20.8613 4.44321Z" fill="#567656"/>
</svg>
