<svg width="38" height="37" viewBox="0 0 38 37" fill="none" xmlns="http://www.w3.org/2000/svg">
<path d="M35.9533 19.8206H2.04704C1.89716 19.8206 1.75343 19.7611 1.64745 19.6551C1.54147 19.5491 1.48193 19.4054 1.48193 19.2555C1.48193 19.1057 1.54147 18.9619 1.64745 18.8559C1.75343 18.75 1.89716 18.6904 2.04704 18.6904H35.9533C36.1032 18.6904 36.2469 18.75 36.3529 18.8559C36.4589 18.9619 36.5184 19.1057 36.5184 19.2555C36.5184 19.4054 36.4589 19.5491 36.3529 19.6551C36.2469 19.7611 36.1032 19.8206 35.9533 19.8206Z" fill="#567656"/>
<path d="M31.715 24.9062C31.2212 24.8944 30.7366 24.7704 30.2978 24.5436C29.859 24.3169 29.4776 23.9933 29.1822 23.5975C28.6832 23.0657 28.2893 22.6458 27.4739 22.6458C26.6585 22.6458 26.2657 23.0657 25.7673 23.5975C25.4806 24.002 25.1012 24.332 24.6608 24.5597C24.2203 24.7874 23.7317 24.9063 23.2359 24.9063C22.7401 24.9063 22.2515 24.7874 21.811 24.5597C21.3706 24.332 20.9912 24.002 20.7045 23.5975C20.2055 23.0657 19.8122 22.6458 18.9968 22.6458C18.1813 22.6458 17.7886 23.0657 17.2902 23.5975C16.9949 23.9936 16.6133 24.3173 16.1744 24.544C15.7355 24.7708 15.2507 24.8947 14.7568 24.9062C14.2634 24.8942 13.7791 24.7702 13.3407 24.5434C12.9023 24.3167 12.5212 23.9932 12.2263 23.5975C11.7278 23.0657 11.3345 22.6458 10.5202 22.6458C9.70589 22.6458 9.31258 23.0657 8.81416 23.5975C8.51943 23.993 8.13861 24.3164 7.7005 24.5432C7.2624 24.7699 6.77847 24.8941 6.28532 24.9062C5.79188 24.8943 5.30762 24.7703 4.8692 24.5435C4.43078 24.3168 4.04969 23.9933 3.75478 23.5975C3.25467 23.0657 2.86135 22.6458 2.04704 22.6458C1.89716 22.6458 1.75343 22.5863 1.64745 22.4803C1.54147 22.3743 1.48193 22.2306 1.48193 22.0807C1.48193 21.9309 1.54147 21.7871 1.64745 21.6811C1.75343 21.5752 1.89716 21.5156 2.04704 21.5156C2.54048 21.5276 3.02474 21.6516 3.46316 21.8783C3.90158 22.1051 4.28266 22.4286 4.57757 22.8244C5.076 23.3562 5.46931 23.776 6.28532 23.776C7.10133 23.776 7.49295 23.3562 7.99137 22.8244C8.28616 22.4289 8.66699 22.1056 9.10508 21.8788C9.54318 21.6521 10.0271 21.5279 10.5202 21.5156C11.0136 21.5276 11.4979 21.6516 11.9363 21.8783C12.3747 22.1051 12.7558 22.4286 13.0507 22.8244C13.5492 23.3562 13.9425 23.776 14.7568 23.776C15.5711 23.776 15.965 23.3562 16.4634 22.8244C16.7501 22.4198 17.1296 22.0899 17.5701 21.8622C18.0106 21.6345 18.4992 21.5156 18.9951 21.5156C19.4909 21.5156 19.9796 21.6345 20.4201 21.8622C20.8605 22.0899 21.24 22.4198 21.5267 22.8244C22.0252 23.3562 22.419 23.776 23.2339 23.776C24.0488 23.776 24.4421 23.3562 24.9405 22.8244C25.2273 22.4198 25.6069 22.0899 26.0474 21.8622C26.4879 21.6345 26.9766 21.5156 27.4725 21.5156C27.9684 21.5156 28.4571 21.6345 28.8976 21.8622C29.3381 22.0899 29.7177 22.4198 30.0044 22.8244C30.5029 23.3562 30.8967 23.776 31.7127 23.776C32.5288 23.776 32.9221 23.3562 33.4205 22.8244C33.7158 22.4285 34.0973 22.105 34.5361 21.8783C34.9749 21.6515 35.4595 21.5275 35.9533 21.5156C36.1032 21.5156 36.2469 21.5752 36.3529 21.6811C36.4589 21.7871 36.5184 21.9309 36.5184 22.0807C36.5184 22.2306 36.4589 22.3743 36.3529 22.4803C36.2469 22.5863 36.1032 22.6458 35.9533 22.6458C35.1378 22.6458 34.7434 23.0657 34.245 23.5975C33.9499 23.993 33.5689 24.3163 33.1306 24.543C32.6923 24.7697 32.2083 24.8939 31.715 24.9062Z" fill="#567656"/>
<path d="M35.9531 28.2972H34.8229C34.673 28.2972 34.5293 28.2377 34.4233 28.1317C34.3173 28.0257 34.2578 27.882 34.2578 27.7321C34.2578 27.5822 34.3173 27.4385 34.4233 27.3325C34.5293 27.2265 34.673 27.167 34.8229 27.167H35.9531C36.103 27.167 36.2467 27.2265 36.3527 27.3325C36.4587 27.4385 36.5182 27.5822 36.5182 27.7321C36.5182 27.882 36.4587 28.0257 36.3527 28.1317C36.2467 28.2377 36.103 28.2972 35.9531 28.2972Z" fill="#567656"/>
<path d="M30.8672 28.2972H29.737C29.5871 28.2972 29.4434 28.2377 29.3374 28.1317C29.2314 28.0257 29.1719 27.882 29.1719 27.7321C29.1719 27.5822 29.2314 27.4385 29.3374 27.3325C29.4434 27.2265 29.5871 27.167 29.737 27.167H30.8672C31.0171 27.167 31.1608 27.2265 31.2668 27.3325C31.3728 27.4385 31.4323 27.5822 31.4323 27.7321C31.4323 27.882 31.3728 28.0257 31.2668 28.1317C31.1608 28.2377 31.0171 28.2972 30.8672 28.2972Z" fill="#567656"/>
<path d="M25.2163 28.2972H24.0861C23.9362 28.2972 23.7925 28.2377 23.6865 28.1317C23.5805 28.0257 23.521 27.882 23.521 27.7321C23.521 27.5822 23.5805 27.4385 23.6865 27.3325C23.7925 27.2265 23.9362 27.167 24.0861 27.167H25.2163C25.3662 27.167 25.5099 27.2265 25.6159 27.3325C25.7219 27.4385 25.7814 27.5822 25.7814 27.7321C25.7814 27.882 25.7219 28.0257 25.6159 28.1317C25.5099 28.2377 25.3662 28.2972 25.2163 28.2972Z" fill="#567656"/>
<path d="M19.5652 28.2972H18.435C18.2851 28.2972 18.1414 28.2377 18.0354 28.1317C17.9294 28.0257 17.8699 27.882 17.8699 27.7321C17.8699 27.5822 17.9294 27.4385 18.0354 27.3325C18.1414 27.2265 18.2851 27.167 18.435 27.167H19.5652C19.7151 27.167 19.8588 27.2265 19.9648 27.3325C20.0708 27.4385 20.1303 27.5822 20.1303 27.7321C20.1303 27.882 20.0708 28.0257 19.9648 28.1317C19.8588 28.2377 19.7151 28.2972 19.5652 28.2972Z" fill="#567656"/>
<path d="M13.9141 28.2972H12.7839C12.634 28.2972 12.4902 28.2377 12.3843 28.1317C12.2783 28.0257 12.2188 27.882 12.2188 27.7321C12.2188 27.5822 12.2783 27.4385 12.3843 27.3325C12.4902 27.2265 12.634 27.167 12.7839 27.167H13.9141C14.0639 27.167 14.2077 27.2265 14.3137 27.3325C14.4196 27.4385 14.4792 27.5822 14.4792 27.7321C14.4792 27.882 14.4196 28.0257 14.3137 28.1317C14.2077 28.2377 14.0639 28.2972 13.9141 28.2972Z" fill="#567656"/>
<path d="M8.26318 28.2972H7.13298C6.9831 28.2972 6.83936 28.2377 6.73339 28.1317C6.62741 28.0257 6.56787 27.882 6.56787 27.7321C6.56787 27.5822 6.62741 27.4385 6.73339 27.3325C6.83936 27.2265 6.9831 27.167 7.13298 27.167H8.26318C8.41306 27.167 8.5568 27.2265 8.66277 27.3325C8.76875 27.4385 8.82829 27.5822 8.82829 27.7321C8.82829 27.882 8.76875 28.0257 8.66277 28.1317C8.5568 28.2377 8.41306 28.2972 8.26318 28.2972Z" fill="#567656"/>
<path d="M3.17725 28.2972H2.04704C1.89716 28.2972 1.75343 28.2377 1.64745 28.1317C1.54147 28.0257 1.48193 27.882 1.48193 27.7321C1.48193 27.5822 1.54147 27.4385 1.64745 27.3325C1.75343 27.2265 1.89716 27.167 2.04704 27.167H3.17725C3.32712 27.167 3.47086 27.2265 3.57684 27.3325C3.68281 27.4385 3.74235 27.5822 3.74235 27.7321C3.74235 27.882 3.68281 28.0257 3.57684 28.1317C3.47086 28.2377 3.32712 28.2972 3.17725 28.2972Z" fill="#567656"/>
<path d="M5.4375 31.6878H4.30729C4.15742 31.6878 4.01368 31.6283 3.9077 31.5223C3.80173 31.4163 3.74219 31.2726 3.74219 31.1227C3.74219 30.9728 3.80173 30.8291 3.9077 30.7231C4.01368 30.6172 4.15742 30.5576 4.30729 30.5576H5.4375C5.58738 30.5576 5.73111 30.6172 5.83709 30.7231C5.94307 30.8291 6.0026 30.9728 6.0026 31.1227C6.0026 31.2726 5.94307 31.4163 5.83709 31.5223C5.73111 31.6283 5.58738 31.6878 5.4375 31.6878Z" fill="#567656"/>
<path d="M11.0886 31.6878H9.95841C9.80854 31.6878 9.6648 31.6283 9.55883 31.5223C9.45285 31.4163 9.39331 31.2726 9.39331 31.1227C9.39331 30.9728 9.45285 30.8291 9.55883 30.7231C9.6648 30.6172 9.80854 30.5576 9.95841 30.5576H11.0886C11.2385 30.5576 11.3822 30.6172 11.4882 30.7231C11.5942 30.8291 11.6537 30.9728 11.6537 31.1227C11.6537 31.2726 11.5942 31.4163 11.4882 31.5223C11.3822 31.6283 11.2385 31.6878 11.0886 31.6878Z" fill="#567656"/>
<path d="M16.7397 31.6878H15.6095C15.4597 31.6878 15.3159 31.6283 15.2099 31.5223C15.104 31.4163 15.0444 31.2726 15.0444 31.1227C15.0444 30.9728 15.104 30.8291 15.2099 30.7231C15.3159 30.6172 15.4597 30.5576 15.6095 30.5576H16.7397C16.8896 30.5576 17.0334 30.6172 17.1393 30.7231C17.2453 30.8291 17.3049 30.9728 17.3049 31.1227C17.3049 31.2726 17.2453 31.4163 17.1393 31.5223C17.0334 31.6283 16.8896 31.6878 16.7397 31.6878Z" fill="#567656"/>
<path d="M22.3906 31.6878H21.2604C21.1105 31.6878 20.9668 31.6283 20.8608 31.5223C20.7548 31.4163 20.6953 31.2726 20.6953 31.1227C20.6953 30.9728 20.7548 30.8291 20.8608 30.7231C20.9668 30.6172 21.1105 30.5576 21.2604 30.5576H22.3906C22.5405 30.5576 22.6842 30.6172 22.7902 30.7231C22.8962 30.8291 22.9557 30.9728 22.9557 31.1227C22.9557 31.2726 22.8962 31.4163 22.7902 31.5223C22.6842 31.6283 22.5405 31.6878 22.3906 31.6878Z" fill="#567656"/>
<path d="M28.0417 31.6878H26.9115C26.7617 31.6878 26.6179 31.6283 26.512 31.5223C26.406 31.4163 26.3464 31.2726 26.3464 31.1227C26.3464 30.9728 26.406 30.8291 26.512 30.7231C26.6179 30.6172 26.7617 30.5576 26.9115 30.5576H28.0417C28.1916 30.5576 28.3354 30.6172 28.4413 30.7231C28.5473 30.8291 28.6069 30.9728 28.6069 31.1227C28.6069 31.2726 28.5473 31.4163 28.4413 31.5223C28.3354 31.6283 28.1916 31.6878 28.0417 31.6878Z" fill="#567656"/>
<path d="M33.6929 31.6878H32.5627C32.4128 31.6878 32.2691 31.6283 32.1631 31.5223C32.0571 31.4163 31.9976 31.2726 31.9976 31.1227C31.9976 30.9728 32.0571 30.8291 32.1631 30.7231C32.2691 30.6172 32.4128 30.5576 32.5627 30.5576H33.6929C33.8427 30.5576 33.9865 30.6172 34.0925 30.7231C34.1984 30.8291 34.258 30.9728 34.258 31.1227C34.258 31.2726 34.1984 31.4163 34.0925 31.5223C33.9865 31.6283 33.8427 31.6878 33.6929 31.6878Z" fill="#567656"/>
<path d="M30.8672 34.513H29.737C29.5871 34.513 29.4434 34.4535 29.3374 34.3475C29.2314 34.2415 29.1719 34.0978 29.1719 33.9479C29.1719 33.798 29.2314 33.6543 29.3374 33.5483C29.4434 33.4423 29.5871 33.3828 29.737 33.3828H30.8672C31.0171 33.3828 31.1608 33.4423 31.2668 33.5483C31.3728 33.6543 31.4323 33.798 31.4323 33.9479C31.4323 34.0978 31.3728 34.2415 31.2668 34.3475C31.1608 34.4535 31.0171 34.513 30.8672 34.513Z" fill="#567656"/>
<path d="M25.2163 34.513H24.0861C23.9362 34.513 23.7925 34.4535 23.6865 34.3475C23.5805 34.2415 23.521 34.0978 23.521 33.9479C23.521 33.798 23.5805 33.6543 23.6865 33.5483C23.7925 33.4423 23.9362 33.3828 24.0861 33.3828H25.2163C25.3662 33.3828 25.5099 33.4423 25.6159 33.5483C25.7219 33.6543 25.7814 33.798 25.7814 33.9479C25.7814 34.0978 25.7219 34.2415 25.6159 34.3475C25.5099 34.4535 25.3662 34.513 25.2163 34.513Z" fill="#567656"/>
<path d="M19.5652 34.513H18.435C18.2851 34.513 18.1414 34.4535 18.0354 34.3475C17.9294 34.2415 17.8699 34.0978 17.8699 33.9479C17.8699 33.798 17.9294 33.6543 18.0354 33.5483C18.1414 33.4423 18.2851 33.3828 18.435 33.3828H19.5652C19.7151 33.3828 19.8588 33.4423 19.9648 33.5483C20.0708 33.6543 20.1303 33.798 20.1303 33.9479C20.1303 34.0978 20.0708 34.2415 19.9648 34.3475C19.8588 34.4535 19.7151 34.513 19.5652 34.513Z" fill="#567656"/>
<path d="M13.9141 34.513H12.7839C12.634 34.513 12.4902 34.4535 12.3843 34.3475C12.2783 34.2415 12.2188 34.0978 12.2188 33.9479C12.2188 33.798 12.2783 33.6543 12.3843 33.5483C12.4902 33.4423 12.634 33.3828 12.7839 33.3828H13.9141C14.0639 33.3828 14.2077 33.4423 14.3137 33.5483C14.4196 33.6543 14.4792 33.798 14.4792 33.9479C14.4792 34.0978 14.4196 34.2415 14.3137 34.3475C14.2077 34.4535 14.0639 34.513 13.9141 34.513Z" fill="#567656"/>
<path d="M8.26318 34.513H7.13298C6.9831 34.513 6.83936 34.4535 6.73339 34.3475C6.62741 34.2415 6.56787 34.0978 6.56787 33.9479C6.56787 33.798 6.62741 33.6543 6.73339 33.5483C6.83936 33.4423 6.9831 33.3828 7.13298 33.3828H8.26318C8.41306 33.3828 8.5568 33.4423 8.66277 33.5483C8.76875 33.6543 8.82829 33.798 8.82829 33.9479C8.82829 34.0978 8.76875 34.2415 8.66277 34.3475C8.5568 34.4535 8.41306 34.513 8.26318 34.513Z" fill="#567656"/>
<path d="M28.6069 16.9948C28.4811 16.9949 28.3588 16.9529 28.2595 16.8756C28.1602 16.7983 28.0896 16.6901 28.0587 16.5681C28.052 16.5393 27.3088 13.6923 25.2632 13.0108C25.1501 12.9736 25.0517 12.9017 24.9819 12.8053C24.9121 12.7089 24.8745 12.593 24.8745 12.474C24.8745 12.3549 24.9121 12.239 24.9819 12.1426C25.0517 12.0462 25.1501 11.9743 25.2632 11.9371C27.319 11.2522 28.0514 8.40916 28.0587 8.38034C28.0895 8.25825 28.1601 8.14991 28.2594 8.07251C28.3587 7.99511 28.481 7.9531 28.6069 7.95313C28.7327 7.95307 28.855 7.995 28.9543 8.07229C29.0535 8.14957 29.1242 8.25779 29.155 8.37978C29.1618 8.4086 29.9049 11.2556 31.9506 11.9371C32.0637 11.9743 32.1621 12.0462 32.2319 12.1426C32.3017 12.239 32.3393 12.3549 32.3393 12.474C32.3393 12.593 32.3017 12.7089 32.2319 12.8053C32.1621 12.9017 32.0637 12.9736 31.9506 13.0108C29.8948 13.6957 29.1624 16.5388 29.155 16.5676C29.1243 16.6897 29.0537 16.798 28.9544 16.8754C28.8551 16.9528 28.7328 16.9948 28.6069 16.9948ZM26.6821 12.474C27.5121 13.0933 28.1738 13.9106 28.6069 14.8514C29.04 13.9106 29.7017 13.0933 30.5316 12.474C29.7017 11.8546 29.04 11.0373 28.6069 10.0966C28.1738 11.0373 27.5121 11.8546 26.6821 12.474Z" fill="#567656"/>
<path d="M19.0001 9.08398C18.8744 9.08376 18.7523 9.04163 18.6533 8.96425C18.5542 8.88688 18.4837 8.77868 18.4531 8.65677C18.448 8.63812 17.9371 6.68851 16.5622 6.23021C16.4492 6.19305 16.3507 6.12114 16.2809 6.02474C16.2112 5.92834 16.1736 5.81237 16.1736 5.69336C16.1736 5.57435 16.2112 5.45838 16.2809 5.36198C16.3507 5.26558 16.4492 5.19367 16.5622 5.15651C17.9371 4.69821 18.448 2.7486 18.4531 2.72656C18.4844 2.60528 18.5551 2.49784 18.6541 2.42113C18.7531 2.34441 18.8748 2.30277 19.0001 2.30273C19.1257 2.30289 19.2476 2.34486 19.3466 2.42202C19.4457 2.49918 19.5162 2.60712 19.5471 2.72882C19.5522 2.7486 20.0631 4.69821 21.438 5.15877C21.551 5.19593 21.6495 5.26784 21.7192 5.36424C21.789 5.46064 21.8266 5.57661 21.8266 5.69562C21.8266 5.81463 21.789 5.9306 21.7192 6.027C21.6495 6.1234 21.551 6.19531 21.438 6.23247C20.0631 6.69077 19.5522 8.64038 19.5471 8.66242C19.5154 8.78328 19.4445 8.89021 19.3455 8.96649C19.2465 9.04276 19.1251 9.08408 19.0001 9.08398ZM17.8942 5.69336C18.3466 6.06839 18.7221 6.5274 19.0001 7.04509C19.2781 6.5274 19.6536 6.06839 20.106 5.69336C19.6536 5.31833 19.2781 4.85932 19.0001 4.34163C18.7221 4.85932 18.3466 5.31833 17.8942 5.69336Z" fill="#567656"/>
<path d="M7.698 17.8421C7.57152 17.8445 7.44805 17.8033 7.34827 17.7256C7.24849 17.6478 7.17844 17.5381 7.14985 17.4149C7.14476 17.3962 6.63391 15.4466 5.25901 14.9883C5.14595 14.9512 5.04751 14.8793 4.97772 14.7829C4.90793 14.6865 4.87036 14.5705 4.87036 14.4515C4.87036 14.3325 4.90793 14.2165 4.97772 14.1201C5.04751 14.0237 5.14595 13.9518 5.25901 13.9146C6.63391 13.4563 7.14476 11.5067 7.14985 11.4847C7.18121 11.3632 7.2521 11.2556 7.35135 11.1789C7.45059 11.1022 7.57255 11.0606 7.698 11.0609C7.82477 11.0566 7.94902 11.0969 8.04916 11.1747C8.14931 11.2526 8.21901 11.363 8.24615 11.4869C8.25124 11.5067 8.76209 13.4563 10.137 13.9169C10.2501 13.9541 10.3485 14.026 10.4183 14.1224C10.4881 14.2188 10.5256 14.3347 10.5256 14.4537C10.5256 14.5727 10.4881 14.6887 10.4183 14.7851C10.3485 14.8815 10.2501 14.9534 10.137 14.9906C8.76209 15.4489 8.25124 17.3985 8.24615 17.4205C8.21436 17.5416 8.14329 17.6487 8.04409 17.725C7.94488 17.8012 7.82315 17.8425 7.698 17.8421ZM6.59209 14.4515C7.04446 14.8265 7.42 15.2855 7.698 15.8032C7.976 15.2855 8.35154 14.8265 8.80391 14.4515C8.35154 14.0764 7.976 13.6174 7.698 13.0997C7.42 13.6174 7.04446 14.0764 6.59209 14.4515Z" fill="#567656"/>
</svg>
