<svg width="22" height="35" viewBox="0 0 22 35" fill="none" xmlns="http://www.w3.org/2000/svg">
<path fill-rule="evenodd" clip-rule="evenodd" d="M15.9251 3.81279C17.202 4.56223 17.7864 5.83782 18.0389 7.14592C18.441 9.22926 18.0097 11.4108 17.9545 11.9838C17.9221 12.3208 18.0249 12.8361 18.2476 13.4319C18.7176 14.6898 19.7066 16.3591 20.6963 17.3889C20.9205 17.6223 21.0225 17.8064 20.9947 17.9771C20.968 18.1402 20.8345 18.261 20.6918 18.3669C20.2856 18.6685 19.7261 18.8094 19.7261 18.8094C19.6048 18.8403 19.5034 18.9235 19.4493 19.0364C19.3951 19.1493 19.3938 19.2804 19.4455 19.3944C19.4455 19.3944 19.7081 19.97 19.756 20.5431C19.7786 20.8154 19.779 21.1006 19.5661 21.2488C19.2746 21.4516 18.8149 21.5108 18.3735 21.5306C17.6283 21.5639 16.9181 21.4518 16.9181 21.4518C16.6874 21.4153 16.4704 21.5731 16.4339 21.8038C16.3974 22.0345 16.5551 22.2515 16.7859 22.288C16.7859 22.288 17.5791 22.4136 18.4114 22.3763C19.0218 22.349 19.6467 22.2241 20.0496 21.9437C20.5073 21.6253 20.6485 21.0579 20.5996 20.4726C20.5694 20.1116 20.4713 19.7494 20.3819 19.4801C20.6283 19.3837 20.9362 19.2398 21.1964 19.0467C21.5225 18.8046 21.7692 18.4863 21.8302 18.1137C21.8899 17.7482 21.7868 17.3019 21.3067 16.8023C20.3899 15.8483 19.476 14.3007 19.0406 13.1356C18.8751 12.6928 18.7731 12.3154 18.7972 12.0651C18.8552 11.4635 19.2923 9.17277 18.8702 6.9855C18.5732 5.44639 17.8559 3.96447 16.3536 3.08265C16.1521 2.9644 15.8926 3.03196 15.7743 3.23341C15.6561 3.43497 15.7236 3.69454 15.9251 3.81279Z" fill="#567656"/>
<path fill-rule="evenodd" clip-rule="evenodd" d="M19.1218 22.2809C19.3098 22.443 19.4101 22.5972 19.4343 22.755C19.4741 23.0134 19.3345 23.2536 19.1974 23.4733C19.0692 23.6791 18.9282 23.8676 18.8302 24.0317C18.7295 24.2003 18.6688 24.3566 18.6531 24.4888C18.6078 24.8675 18.7376 25.3068 18.8236 25.7691C18.9143 26.2569 18.9174 26.7856 18.2393 27.2719C18.0602 27.4003 17.8189 27.4655 17.5357 27.502C17.0191 27.5685 16.3793 27.5283 15.6733 27.4559C13.7703 27.261 11.4215 26.8408 9.59172 27.3053C9.36527 27.3628 9.22812 27.5933 9.28552 27.8197C9.34302 28.0462 9.57354 28.1833 9.79998 28.1258C11.5414 27.6838 13.776 28.1126 15.5871 28.2981C16.3667 28.3781 17.0734 28.4151 17.6439 28.3416C18.0853 28.2848 18.4535 28.1601 18.7326 27.9598C19.7929 27.1996 19.7977 26.3769 19.6559 25.6143C19.5868 25.2429 19.4573 24.8935 19.4937 24.5892C19.5037 24.5052 19.5883 24.4121 19.6684 24.2935C19.8044 24.0921 19.9646 23.8648 20.0842 23.6216C20.2315 23.322 20.3171 22.9998 20.277 22.6696C20.2366 22.3358 20.0732 21.9836 19.6749 21.6398C19.4979 21.4872 19.2304 21.5069 19.0778 21.6838C18.9253 21.8607 18.945 22.1282 19.1218 22.2809Z" fill="#567656"/>
<path fill-rule="evenodd" clip-rule="evenodd" d="M16.4502 1.19725C16.3997 1.99027 16.0491 2.88093 15.4396 3.87703C14.4752 5.45343 12.8704 7.26918 10.7097 9.33139C6.92112 12.947 5.0307 18.2839 7.43609 23.2152C8.99643 26.4141 9.18001 28.7345 8.8154 30.3719C8.29535 32.707 6.66084 33.5844 6.66084 33.5844C6.454 33.6929 6.37405 33.9489 6.48255 34.1558C6.59105 34.3627 6.84706 34.4426 7.054 34.3341C7.054 34.3341 9.0261 33.3206 9.64174 30.5558C10.0343 28.7933 9.87673 26.2878 8.19701 22.8441C5.95975 18.2577 7.77063 13.3066 11.2941 9.94389C13.5205 7.819 15.168 5.94311 16.1618 4.31896C16.8577 3.18133 17.2375 2.15658 17.2952 1.25099C17.31 1.01784 17.1327 0.816582 16.8996 0.801648C16.6664 0.786816 16.4651 0.964093 16.4502 1.19725Z" fill="#567656"/>
<path fill-rule="evenodd" clip-rule="evenodd" d="M12.1794 12.0986C13.1853 10.6437 15.2993 10.3474 16.4603 10.5356C16.6909 10.573 16.9086 10.4162 16.9459 10.1855C16.9833 9.95493 16.8265 9.73732 16.5959 9.69994C15.2049 9.4744 12.6883 9.87396 11.4831 11.6171C11.3502 11.8093 11.3983 12.0731 11.5905 12.206C11.7826 12.3389 12.0466 12.2907 12.1794 12.0986Z" fill="#567656"/>
<path fill-rule="evenodd" clip-rule="evenodd" d="M16.5964 12.9422C15.5289 13.861 14.2854 13.9845 12.919 13.3738C12.7058 13.2784 12.4553 13.3742 12.3599 13.5874C12.2646 13.8008 12.3603 14.0513 12.5736 14.1467C14.2745 14.907 15.8198 14.7278 17.1487 13.5839C17.3258 13.4315 17.3458 13.164 17.1933 12.9869C17.0409 12.8099 16.7734 12.7898 16.5964 12.9422Z" fill="#567656"/>
<path fill-rule="evenodd" clip-rule="evenodd" d="M10.9532 5.32811C10.5122 6.2652 9.3999 7.02734 8.13569 7.96737C6.07958 9.49622 3.62268 11.4235 2.51117 14.8821C1.91249 16.745 2.00077 18.4198 2.09108 20.0923C2.21797 22.4428 2.34557 24.7898 0.234698 27.7102C0.0978543 27.8996 0.140523 28.1644 0.32989 28.3013C0.519155 28.4381 0.784005 28.3954 0.920849 28.2062C2.81411 25.5868 3.04615 23.3991 2.99109 21.2782C2.93917 19.2829 2.60717 17.3506 3.3172 15.1411C4.3643 11.8827 6.70376 10.0871 8.64091 8.64671C10.0389 7.60722 11.2316 6.7249 11.7193 5.68856C11.8188 5.47715 11.7279 5.2248 11.5166 5.12534C11.3052 5.02578 11.0528 5.1167 10.9532 5.32811Z" fill="#567656"/>
<path fill-rule="evenodd" clip-rule="evenodd" d="M4.77689 25.6502C4.95732 27.1336 4.45332 28.5057 3.79419 29.621C2.78122 31.3351 1.39145 32.4527 1.39145 32.4527C1.20919 32.599 1.18004 32.8656 1.32633 33.0478C1.47252 33.23 1.7392 33.2591 1.92135 33.1129C1.92135 33.1129 3.42725 31.9059 4.52301 30.0518C5.26981 28.7882 5.82176 27.2287 5.61736 25.548C5.58912 25.3161 5.37791 25.1507 5.14597 25.1789C4.91404 25.2072 4.74865 25.4183 4.77689 25.6502Z" fill="#567656"/>
</svg>
