<svg width="32" height="35" viewBox="0 0 32 35" fill="none" xmlns="http://www.w3.org/2000/svg">
<path d="M28.5709 14.9423C27.8349 14.2981 26.7025 14.3666 25.9926 15.0984L19.6889 21.6049H12.4676L6.16382 15.0984C5.45461 14.3659 4.32158 14.2974 3.58553 14.9423C3.21751 15.2644 2.99712 15.7122 2.96392 16.2032C2.93142 16.6941 3.09107 17.1667 3.41318 17.5347L10.8747 26.0579V34.0075C10.8747 34.2413 11.0647 34.4313 11.2985 34.4313H20.8586C21.0925 34.4313 21.2825 34.2413 21.2825 34.0075V26.0586L28.7433 17.5354C29.0654 17.1674 29.225 16.6941 29.1925 16.2039C29.16 15.7122 28.9389 15.2651 28.5709 14.9423ZM28.1054 16.9767L20.5394 25.6199C20.4715 25.6969 20.4341 25.7965 20.4341 25.8989V33.5837H11.7223V25.8989C11.7223 25.7965 11.6849 25.6969 11.6171 25.6199L4.05104 16.9767C3.87797 16.7789 3.7925 16.5239 3.81016 16.259C3.82782 15.9941 3.94649 15.7532 4.14428 15.5801C4.54762 15.2277 5.1537 15.2743 5.55563 15.6889L11.9844 22.3247C12.0642 22.4073 12.1744 22.4539 12.2888 22.4539H19.8697C19.9841 22.4539 20.0943 22.4073 20.1742 22.3247L26.6029 15.6889C27.0042 15.2743 27.6109 15.2277 28.0143 15.5801C28.2121 15.7532 28.3307 15.9948 28.3484 16.259C28.3661 16.5232 28.2785 16.7789 28.1054 16.9767ZM16.0786 20.3758C18.6222 20.3758 20.6919 18.3061 20.6919 15.7624C20.6919 13.2187 18.6222 11.149 16.0786 11.149C13.5349 11.149 11.4652 13.2187 11.4652 15.7624C11.4652 18.3061 13.5342 20.3758 16.0786 20.3758ZM16.0786 11.996C18.1553 11.996 19.8443 13.6856 19.8443 15.7617C19.8443 17.8377 18.1546 19.5274 16.0786 19.5274C14.0025 19.5274 12.3129 17.8377 12.3129 15.7617C12.3129 13.6856 14.0018 11.996 16.0786 11.996ZM15.5438 6.66634V0.807617C15.5438 0.573805 15.7339 0.383789 15.9677 0.383789C16.2015 0.383789 16.3915 0.573805 16.3915 0.807617V6.66634C16.3915 6.90015 16.2015 7.09016 15.9677 7.09016C15.7339 7.09016 15.5438 6.90085 15.5438 6.66634ZM5.14946 11.4146L1.00654 7.2717C0.841245 7.10641 0.841245 6.83799 1.00654 6.67199C1.17183 6.50669 1.44026 6.50669 1.60555 6.67199L5.74847 10.8149C5.91376 10.9802 5.91376 11.2486 5.74847 11.4146C5.66582 11.4973 5.55704 11.5389 5.44896 11.5389C5.34089 11.5389 5.2321 11.4973 5.14946 11.4146ZM30.9938 7.11559L26.8509 11.2585C26.7682 11.3412 26.6594 11.3828 26.5514 11.3828C26.4433 11.3828 26.3345 11.3412 26.2519 11.2585C26.0866 11.0932 26.0866 10.8248 26.2519 10.6588L30.3948 6.51588C30.5601 6.35058 30.8285 6.35058 30.9938 6.51588C31.1591 6.68188 31.1591 6.9503 30.9938 7.11559ZM8.7852 5.83422C8.66794 5.63149 8.73787 5.37225 8.9406 5.25499C9.14333 5.13773 9.40257 5.20766 9.51983 5.41039L10.9849 7.94771C11.1021 8.15044 11.0322 8.40968 10.8295 8.52694C10.7624 8.56579 10.6896 8.58345 10.6183 8.58345C10.472 8.58345 10.3293 8.50716 10.2509 8.37154L8.7852 5.83422ZM20.9816 7.83751L22.4466 5.3002C22.5638 5.09746 22.8231 5.02824 23.0258 5.14479C23.2285 5.26205 23.2978 5.52129 23.1812 5.72402L21.7162 8.26134C21.6378 8.39697 21.4951 8.47326 21.3489 8.47326C21.2768 8.47326 21.2041 8.45489 21.1377 8.41675C20.9335 8.29949 20.8643 8.04024 20.9816 7.83751Z" fill="#567656"/>
</svg>
