<svg width="24" height="24" viewBox="0 0 24 24" fill="none" xmlns="http://www.w3.org/2000/svg">
<path d="M14.0848 5.91992C15.0616 6.11049 15.9592 6.58818 16.6629 7.29186C17.3666 7.99554 17.8443 8.89319 18.0348 9.86992M14.0848 1.91992C16.1141 2.14536 18.0064 3.0541 19.4511 4.49693C20.8957 5.93976 21.8068 7.83093 22.0348 9.85992M10.2618 13.783C9.06022 12.5814 8.11143 11.2228 7.41543 9.77315C7.35557 9.64846 7.32563 9.58612 7.30264 9.50723C7.22091 9.22687 7.27961 8.88261 7.44963 8.64518C7.49747 8.57837 7.55462 8.52121 7.66893 8.4069C8.01854 8.0573 8.19334 7.88249 8.30763 7.70672C8.73862 7.04382 8.73862 6.18924 8.30763 5.52635C8.19334 5.35058 8.01854 5.17577 7.66893 4.82617L7.47406 4.6313C6.94262 4.09985 6.6769 3.83413 6.39152 3.68979C5.82396 3.40272 5.15369 3.40272 4.58613 3.68979C4.30075 3.83413 4.03503 4.09985 3.50359 4.6313L3.34595 4.78893C2.81633 5.31855 2.55152 5.58337 2.34927 5.9434C2.12485 6.3429 1.96349 6.9634 1.96485 7.42162C1.96608 7.83456 2.04618 8.11679 2.20639 8.68123C3.06736 11.7146 4.69184 14.577 7.07982 16.965C9.4678 19.353 12.3302 20.9774 15.3636 21.8384C15.928 21.9986 16.2102 22.0787 16.6232 22.0799C17.0814 22.0813 17.7019 21.9199 18.1014 21.6955C18.4614 21.4933 18.7262 21.2285 19.2559 20.6988L19.4135 20.5412C19.9449 20.0098 20.2107 19.744 20.355 19.4587C20.6421 18.8911 20.6421 18.2208 20.355 17.6533C20.2107 17.3679 19.9449 17.1022 19.4135 16.5707L19.2186 16.3759C18.869 16.0262 18.6942 15.8514 18.5184 15.7372C17.8555 15.3062 17.001 15.3062 16.3381 15.7372C16.1623 15.8514 15.9875 16.0262 15.6379 16.3759C15.5236 16.4902 15.4664 16.5473 15.3996 16.5952C15.1622 16.7652 14.8179 16.8239 14.5376 16.7422C14.4587 16.7192 14.3963 16.6892 14.2716 16.6294C12.822 15.9334 11.4634 14.9846 10.2618 13.783Z" stroke="#567656" stroke-width="2" stroke-linecap="round" stroke-linejoin="round"/>
</svg>
