<svg width="28" height="24" viewBox="0 0 28 24" fill="none" xmlns="http://www.w3.org/2000/svg">
<path d="M1.5 5.75L11.7061 12.8943C12.5326 13.4728 12.9458 13.7621 13.3953 13.8741C13.7924 13.9731 14.2076 13.9731 14.6047 13.8741C15.0542 13.7621 15.4674 13.4728 16.2938 12.8943L26.5 5.75M7.5 22H20.5C22.6002 22 23.6503 22 24.4525 21.5913C25.1581 21.2317 25.7317 20.6581 26.0913 19.9525C26.5 19.1503 26.5 18.1002 26.5 16V8C26.5 5.8998 26.5 4.8497 26.0913 4.04754C25.7317 3.34193 25.1581 2.76825 24.4525 2.40873C23.6503 2 22.6002 2 20.5 2H7.5C5.3998 2 4.3497 2 3.54754 2.40873C2.84193 2.76825 2.26825 3.34193 1.90873 4.04754C1.5 4.8497 1.5 5.8998 1.5 8V16C1.5 18.1002 1.5 19.1503 1.90873 19.9525C2.26825 20.6581 2.84193 21.2317 3.54754 21.5913C4.3497 22 5.3998 22 7.5 22Z" stroke="#567656" stroke-width="2.5" stroke-linecap="round" stroke-linejoin="round"/>
</svg>
