<svg width="16" height="16" viewBox="0 0 16 16" fill="none" xmlns="http://www.w3.org/2000/svg">
<path d="M7.20745 1.43921C7.45691 0.671449 8.54309 0.67145 8.79255 1.43921L10.058 5.33401C10.1696 5.67736 10.4896 5.90983 10.8506 5.90983H14.9458C15.7531 5.90983 16.0887 6.94284 15.4356 7.41734L12.1225 9.82446C11.8305 10.0367 11.7082 10.4128 11.8198 10.7562L13.0853 14.651C13.3348 15.4187 12.456 16.0572 11.8029 15.5827L8.48982 13.1755C8.19775 12.9633 7.80225 12.9633 7.51018 13.1755L4.19706 15.5827C3.54397 16.0572 2.66523 15.4187 2.91469 14.651L4.18019 10.7562C4.29175 10.4128 4.16954 10.0367 3.87747 9.82446L0.564349 7.41734C-0.0887452 6.94284 0.246902 5.90983 1.05417 5.90983H5.14941C5.51043 5.90983 5.83039 5.67736 5.94196 5.33401L7.20745 1.43921Z" fill="#FFA24D"/>
</svg>
