<svg width="258" height="203" viewBox="0 0 258 203" fill="none" xmlns="http://www.w3.org/2000/svg">
<path opacity="0.3" d="M109.15 196.363C115.016 177.202 121.093 157.487 132.948 141.074C133.85 139.823 134.795 138.604 135.766 137.408C135.266 137.849 134.795 138.315 134.288 138.751C127.94 144.175 121.057 148.945 113.819 153.095C113.877 153.179 113.921 153.282 113.903 153.425C111.855 167.408 106.384 180.79 98.6166 192.543C96.3792 195.926 93.9155 199.118 91.3386 202.245C90.8568 202.828 89.7545 202.652 89.6889 201.804C88.5574 187.08 93.4228 172.054 102.38 160.418C102.989 159.626 103.624 158.852 104.274 158.088C98.1567 160.991 91.835 163.442 85.3783 165.438C85.3564 165.486 85.3417 165.533 85.3052 165.577C82.6736 168.792 79.4106 171.485 76.1622 174.046C72.8918 176.622 69.4682 179 65.9022 181.15C58.7556 185.461 51.1272 188.944 43.1703 191.45C38.6444 192.873 34.0235 193.985 29.348 194.789C28.2822 194.972 27.7712 193.53 28.5559 192.884C40.484 183.091 54.0143 175.283 68.4644 169.907C69.1323 169.658 69.8113 169.449 70.4829 169.214C61.0368 171.074 51.3279 171.999 41.6775 171.83C36.772 177.301 30.8736 181.946 25.0082 186.327C18.8836 190.903 12.4341 195.053 5.78392 198.818C4.69989 199.43 3.40047 200.285 2.09744 199.834C0.681264 199.346 0.444023 197.794 0.871067 196.524C1.35286 195.082 2.30917 193.673 3.10851 192.389C3.948 191.035 4.85684 189.721 5.83138 188.459C9.66382 183.487 14.4781 179.315 19.8836 176.149C23.5847 173.984 27.5485 172.34 31.6584 171.232C28.3186 170.891 24.9936 170.439 21.7123 169.797C19.3362 169.331 17.044 168.748 14.7409 167.996C13.5437 167.603 14.0985 165.75 15.2956 165.9C23.6942 166.95 31.9941 168.212 40.4292 168.528C38.3232 168.032 36.2354 167.43 34.1658 166.689C27.5667 164.326 21.3473 160.899 15.7957 156.606C12.6641 154.184 9.74408 151.487 7.10882 148.526C6.56498 147.917 6.95552 147.059 7.57236 146.732C11.4121 144.699 15.8723 146.09 19.6062 147.682C23.5117 149.348 27.3259 151.245 31.0306 153.322C38.4765 157.494 45.4807 162.407 51.9338 168.003C52.0579 168.109 52.1382 168.23 52.2039 168.355C59.7958 167.896 67.3548 166.825 74.7715 165.145C84.3307 162.983 93.6673 159.78 102.566 155.637C95.193 156.368 87.6777 156.173 80.3377 155.483C71.2603 154.632 62.2887 152.922 53.5288 150.394C48.5722 148.963 43.6922 147.268 38.9145 145.316C37.8669 144.886 38.0129 143.129 39.2101 143.048C57.5547 141.782 76.4833 140.498 94.2038 146.486C98.7225 148.013 103.059 150.02 107.136 152.511C107.409 152.68 107.541 152.896 107.603 153.128C114.994 149.304 122.057 144.846 128.612 139.705C137.897 132.429 145.971 123.88 153.315 114.703C152.997 114.857 152.676 115.015 152.358 115.169C150.256 116.203 148.128 117.179 145.975 118.1C141.737 119.909 137.416 121.524 133.028 122.929C124.404 125.692 115.534 127.674 106.555 128.819C101.387 129.479 96.1894 129.853 90.9809 129.96C90.2035 129.974 89.802 129.105 90.3969 128.558C104.117 115.939 122.582 108.876 141.149 108.729C146.398 108.689 151.621 109.169 156.76 110.233C156.768 110.233 156.775 110.241 156.782 110.241C161.089 104.579 165.162 98.7266 169.093 92.8191C180.642 75.4596 191.223 57.4103 204.348 41.1664C216.879 25.6599 231.931 11.0708 250.465 3.15249C252.743 2.18013 255.061 1.30682 257.411 0.525264C257.926 0.352807 258.258 1.11236 257.74 1.31784C238.552 8.97566 222.634 22.7942 209.476 38.5318C196.001 54.6474 185.277 72.7847 173.86 90.3679C169.137 97.6405 164.239 104.854 158.994 111.793C159.144 112.351 158.899 113.019 158.151 113.158C158.082 113.169 158.016 113.18 157.946 113.191C154.483 117.708 150.866 122.096 147.037 126.294C147.402 131.585 146.544 136.939 145.405 142.094C144.252 147.319 142.65 152.445 140.66 157.406C136.631 167.463 130.995 176.857 123.98 185.091C120.863 188.749 117.487 192.176 113.881 195.346C113.669 195.713 113.443 196.069 113.18 196.4C112.943 196.697 112.636 196.733 112.384 196.623C111.924 197.012 111.479 197.416 111.012 197.794C110.012 198.608 108.815 197.464 109.15 196.363ZM40.1481 186.9C37.845 188.455 35.6076 190.11 33.403 191.802C47.9261 188.716 61.7084 182.456 73.651 173.577C75.7753 171.995 77.7863 170.282 79.7902 168.564C65.7196 172.505 52.2696 178.71 40.1481 186.9ZM23.1722 185.05C27.8259 181.649 32.2022 177.921 36.6369 174.263C25.5666 180.02 15.3103 187.116 6.48104 195.985C12.237 192.65 17.7959 188.98 23.1722 185.05ZM30.9649 155.847C27.5011 153.858 23.9351 152.052 20.2924 150.42C17.1717 149.022 13.4962 147.323 10.0908 148.233C19.15 157.527 30.5962 163.956 43.1739 167.082C45.0025 167.537 46.8422 167.951 48.6927 168.3C43.1521 163.644 37.2391 159.446 30.9649 155.847ZM10.3317 186.338C8.40454 188.389 6.6453 190.617 5.13788 192.998C4.40059 194.158 3.66328 195.357 3.09024 196.612C2.99169 196.825 2.49164 197.651 2.90044 197.838C2.96978 197.871 3.08658 197.838 3.21433 197.794C3.18878 197.603 3.2399 197.398 3.42969 197.203C13.6897 186.823 25.7564 177.888 39.148 172.061C28.2566 173.114 17.8396 178.354 10.3317 186.338ZM110.004 155.226C100.518 164.249 94.2184 176.494 92.1818 189.461C91.6781 192.675 91.4591 195.926 91.4737 199.177C99.7736 189.131 105.916 177.268 109.833 164.858C111.001 161.163 112.023 157.421 112.851 153.634C111.906 154.166 110.964 154.716 110.004 155.226ZM55.5619 144.402C51.9776 144.53 48.397 144.762 44.8164 145.015C45.3749 145.217 45.9406 145.393 46.5027 145.587C47.1122 145.694 47.7181 145.804 48.3204 145.895C50.3899 146.218 52.4631 146.53 54.5362 146.842C58.6826 147.466 62.8289 148.079 66.9826 148.647C75.2935 149.789 83.6226 150.721 91.9774 151.495C95.3463 151.807 98.7115 152.111 102.08 152.412C87.9004 145.004 71.3151 143.83 55.5619 144.402ZM56.2371 148.192C55.175 148.035 54.1128 147.858 53.0507 147.693C65.6795 151.447 78.7646 153.539 91.9555 153.935C95.2368 154.034 98.5181 154.001 101.799 153.949C86.5718 152.452 71.3698 150.449 56.2371 148.192ZM103.741 120.64C100.471 122.555 97.3793 124.76 94.4521 127.171C95.4375 126.822 96.4303 126.503 97.3939 126.162C99.5364 125.41 101.686 124.676 103.847 123.971C108.092 122.584 112.366 121.293 116.662 120.093C125.243 117.693 133.893 115.58 142.624 113.815C146.321 113.066 150.048 112.175 153.796 111.558C136.711 108.546 118.742 111.87 103.741 120.64ZM144.905 115.004C140.503 115.712 136.123 116.589 131.769 117.532C122.86 119.458 114.067 121.832 105.38 124.599C102.993 125.358 100.609 126.144 98.2407 126.958C97.1238 127.343 96.0106 127.78 94.8827 128.187C111.552 127.391 128.061 123.817 143.529 117.495C145.905 116.523 148.256 115.488 150.585 114.402C150.742 114.328 150.898 114.244 151.055 114.171C149 114.427 146.946 114.677 144.905 115.004ZM142.372 143.51C143.117 140.571 143.661 137.599 144.164 134.623C140.664 141.852 136.912 148.978 133.35 156.169C129.061 164.825 124.893 173.54 120.549 182.17C119.44 184.372 118.326 186.569 117.217 188.771C129.382 176.273 138.069 160.474 142.372 143.51ZM113.242 192.624C113.848 191.464 114.519 190.327 115.082 189.219C116.169 187.083 117.257 184.944 118.345 182.808C120.52 178.53 122.761 174.288 124.987 170.039C129.437 161.538 133.871 153.025 138.273 144.497C140.383 140.41 142.412 136.278 144.569 132.216C144.621 131.915 144.668 131.618 144.719 131.317C130.572 144.615 122.619 162.91 116.509 181.055C115.158 185.069 113.895 189.116 112.658 193.167C112.855 192.994 113.045 192.804 113.242 192.624Z" fill="#E1EAE1"/>
</svg>
