<svg width="147" height="223" viewBox="0 0 147 223" fill="none" xmlns="http://www.w3.org/2000/svg">
<g opacity="0.3">
<path d="M61.7288 39.0119C53.6782 40.8346 45.7219 37.0867 39.4385 32.2941C36.2363 29.8057 33.1815 27.1315 30.29 24.2849C29.0728 23.1069 27.7265 21.6458 27.5753 19.8662C27.4625 18.5385 27.9962 16.887 29.3818 16.4454C30.5826 16.0628 31.7843 16.7179 32.7798 17.3366C33.9038 18.0352 34.9582 18.8671 36.1936 19.3652C36.756 19.6225 37.3737 19.7339 37.99 19.6891C38.6063 19.6442 39.2016 19.4447 39.7213 19.1086C40.9502 18.2456 41.4086 16.7153 41.5229 15.2801C41.7474 12.4613 39.8354 7.58997 43.766 6.56363C44.4693 6.40208 45.1979 6.38661 45.9073 6.51818C46.6167 6.64974 47.2918 6.92557 47.8913 7.32873C49.3566 8.29268 50.2947 9.94371 50.9688 11.5231C51.7629 13.384 52.3184 15.3552 52.9456 17.2765C53.6539 19.4463 54.3622 21.616 55.0705 23.7857C56.4758 28.0908 57.8811 32.3958 59.2864 36.7009C59.6349 37.7685 59.9834 38.8362 60.3319 39.9038C60.5973 39.6988 60.8627 39.4938 61.1281 39.2888C55.8909 35.9276 51.541 31.3427 48.4499 25.9256C45.3587 20.5084 43.6183 14.42 43.3771 8.18019C43.3348 6.55953 43.4184 4.729 44.521 3.43535C45.4509 2.34428 46.8401 1.85925 48.206 1.60103C49.6681 1.36801 51.1467 1.25424 52.6271 1.26084C54.1712 1.19702 55.7178 1.26754 57.2497 1.47161C58.7478 1.66083 60.1925 2.15241 61.4968 2.91682C62.8095 3.75217 63.8525 4.95254 64.4992 6.37218C65.93 9.3892 66.059 13.0589 66.1004 16.3413C66.1926 23.6449 64.6804 30.8791 61.6715 37.5282C61.2985 38.348 60.9033 39.1568 60.4858 39.9548C60.8224 40.0464 61.1591 40.138 61.4958 40.2296C60.5535 32.9394 60.3229 25.5741 60.8073 18.2388C61.0145 15.1232 61.2288 11.9345 62.0458 8.90864C62.7336 6.3609 63.964 3.8012 66.2562 2.34813C70.6025 -0.407118 76.5658 2.24606 79.0024 6.37114C82.2141 11.8087 80.7438 18.8323 78.099 24.1738C75.459 29.5056 71.2398 34.0985 65.8981 36.7582C60.1608 39.6149 53.3689 40.0728 47.3909 37.7031C41.3352 35.3026 35.645 30.5221 28.732 31.5954C27.3776 31.7934 26.085 32.2955 24.9502 33.0644C23.8154 33.8333 22.8675 34.8493 22.1772 36.0368C20.92 38.2434 20.7819 40.989 22.2685 43.1255C23.6542 45.1171 25.9794 46.1336 28.2833 46.6058C31.0934 47.1818 34.0076 47.0486 36.8479 46.8125C43.4963 46.2567 50.0043 44.5807 56.0992 41.8547C57.6054 41.1811 59.0807 40.4438 60.5252 39.6429C61.1367 39.3049 60.5904 38.364 59.9781 38.7023C54.0273 41.9863 47.5516 44.2014 40.8427 45.2479C37.6823 45.7877 34.4752 46.0018 31.2715 45.8867C28.8614 45.7614 26.1537 45.2816 24.2421 43.6863C23.2917 42.9047 22.6369 41.8191 22.3872 40.6108C22.1375 39.4025 22.3079 38.1447 22.8701 37.0475C24.1504 34.4035 26.7511 32.8221 29.6259 32.5752C36.6172 31.9749 42.253 37.2465 48.5692 39.2825C54.5769 41.2191 61.2906 40.3926 66.8524 37.4914C72.1032 34.7524 76.3076 30.1571 78.9589 24.8762C81.6688 19.4785 83.1318 12.7665 80.5611 7.03324C78.5115 2.46226 73.1755 -0.805892 68.1572 0.378865C62.5562 1.70123 60.8266 7.89547 60.2092 12.9025C59.3456 20.1804 59.2229 27.528 59.8431 34.8309C59.9892 36.6349 60.1787 38.4345 60.4118 40.2296C60.4739 40.7116 61.1441 41.0376 61.4217 40.5045C64.9668 33.6877 66.9306 26.153 67.166 18.4651C67.2243 16.5344 67.1695 14.6019 67.0021 12.6777C66.89 10.9654 66.5978 9.26989 66.1303 7.61948C65.6734 6.00089 64.837 4.51591 63.6913 3.289C62.5768 2.18859 61.2133 1.37635 59.7177 0.92196C56.6812 -0.0534894 53.3041 0.0583073 50.1608 0.277677C47.1077 0.490722 43.7533 1.32631 42.6839 4.59268C42.1533 6.21326 42.2495 8.00225 42.3667 9.67962C42.4821 11.322 42.7029 12.9553 43.0275 14.5691C45.0203 24.3136 50.5471 32.9657 58.5338 38.8441C59.2005 39.3291 59.8829 39.7908 60.581 40.2293C60.6744 40.2812 60.7808 40.3046 60.8872 40.2966C60.9935 40.2885 61.0953 40.2494 61.1798 40.1841C61.2644 40.1188 61.3281 40.03 61.3632 39.9288C61.3983 39.8276 61.4031 39.7182 61.3772 39.6142C59.882 35.0337 58.3867 30.4531 56.8915 25.8725C55.4524 21.464 54.1072 17.0104 52.5554 12.6407C51.4026 9.39466 49.5149 5.92795 45.7816 5.4045C45.0541 5.27579 44.3075 5.30546 43.5924 5.4915C42.8772 5.67753 42.2101 6.0156 41.6361 6.48288C40.2272 7.72104 40.0385 9.69177 40.1811 11.4522C40.3213 13.1831 40.7219 14.9243 40.1791 16.6284C39.7358 18.02 38.5381 18.9017 37.0772 18.5168C34.536 17.8471 32.6817 15.0203 29.8613 15.2538C28.3172 15.3816 27.1821 16.4863 26.716 17.9314C26.1949 19.5467 26.5867 21.2335 27.4715 22.6388C28.5137 24.2939 30.0673 25.5752 31.4895 26.8854C33.0626 28.3347 34.6473 29.7725 36.286 31.147C42.631 36.4696 50.4045 41.1347 58.9871 40.5146C60.0069 40.4401 61.0197 40.2889 62.017 40.0623C62.6973 39.9083 62.4094 38.8578 61.7288 39.0119Z" fill="#E1EAE1"/>
<path d="M106.792 68.3138C102.592 61.5166 103.261 53.0665 105.529 45.7293C106.764 41.7321 108.418 37.8604 110.116 34.0428C110.816 32.4701 111.66 30.6998 113.193 29.7861C114.376 29.0813 116.208 28.893 117.231 29.9873C118.129 30.9471 117.952 32.3707 117.697 33.5482C117.412 34.8706 116.957 36.1695 116.877 37.5296C116.81 38.1684 116.908 38.8139 117.161 39.4039C117.414 39.9938 117.814 40.5084 118.322 40.8979C119.566 41.7909 121.25 41.6768 122.649 41.2706C124.418 40.7569 125.939 39.6018 127.75 39.2084C128.487 39.0151 129.267 39.0784 129.963 39.3881C130.66 39.6977 131.231 40.2354 131.584 40.9134C132.24 42.1708 132.375 43.6371 131.96 44.9939C131.448 46.6773 130.208 48.0526 128.927 49.2004C127.432 50.5403 125.783 51.7111 124.191 52.9293C122.411 54.2908 120.632 55.6522 118.853 57.0137C115.294 59.7365 111.736 62.4593 108.177 65.1822C107.288 65.8629 106.398 66.5436 105.508 67.2243C105.774 67.4294 106.039 67.6344 106.305 67.8394C107.666 61.9974 110.379 56.5605 114.224 51.9701C118.025 47.3881 122.832 43.7541 128.267 41.3535C129.84 40.6671 131.589 39.9082 133.339 40.0175C134.849 40.1118 136.059 41.0316 136.915 42.2345C137.731 43.4735 138.392 44.8092 138.882 46.2111C139.549 47.8384 140.088 49.5156 140.494 51.2273C140.915 52.8981 140.955 54.6429 140.61 56.3311C140.212 57.9161 139.35 59.3449 138.136 60.4332C135.724 62.6723 132.391 63.9761 129.343 65.0665C122.588 67.4797 115.393 68.3947 108.253 67.7486C107.337 67.6651 106.425 67.5548 105.516 67.4178C105.559 67.7496 105.602 68.0814 105.646 68.4132C112.031 65.2118 118.707 62.6339 125.583 60.7151C128.702 59.8456 131.912 58.9399 135.154 58.7169C138.018 58.52 141.133 58.9397 143.271 61.0467C146.944 64.6675 145.927 71.148 142.567 74.5923C138.388 78.8756 131.826 79.6678 126.169 78.9729C119.879 78.2002 113.754 75.3599 109.436 70.6451C107.307 68.3442 105.668 65.6296 104.622 62.6686C103.576 59.7075 103.144 56.5626 103.352 53.4275C103.803 47.0311 106.266 39.8133 102.572 33.8906C101.888 32.7806 100.973 31.8321 99.891 31.11C98.8086 30.3879 97.5838 29.9092 96.3003 29.7067C93.7613 29.3295 91.241 30.2435 89.789 32.4291C88.3352 34.6172 88.3656 37.455 88.8202 39.9462C89.3541 42.8728 90.5634 45.6906 91.8087 48.3738C94.4837 54.1244 98.0577 59.4074 102.395 64.0222C103.469 65.1653 104.589 66.2629 105.753 67.3152C106.269 67.7837 107.038 67.0157 106.519 66.545C101.74 62.2129 97.7089 57.1154 94.5881 51.4594C93.0343 48.6722 91.7266 45.7535 90.6801 42.7368C89.8234 40.2261 89.1964 37.3273 89.9375 34.709C90.2573 33.4925 90.9907 32.4269 92.0105 31.697C93.0304 30.9671 94.2723 30.6189 95.5209 30.7129C96.8467 30.8166 98.1253 31.2531 99.2397 31.9823C100.354 32.7115 101.268 33.7102 101.899 34.8867C103.441 37.6539 103.642 40.9804 103.405 44.0793C103.123 47.7675 102.234 51.3943 102.199 55.1041C102.141 61.3073 104.775 67.3466 109.025 71.7951C113.439 76.415 119.536 79.1808 125.81 80.0159C131.547 80.7796 138.036 80.0352 142.562 76.0916C146.354 72.7879 147.962 66.8291 145.509 62.2495C142.512 56.6549 135.42 57.2202 130.178 58.4219C123.203 60.0302 116.397 62.3077 109.854 65.2232C108.252 65.9353 106.666 66.6852 105.098 67.4727C104.706 67.6693 104.766 68.3988 105.228 68.4682C114.646 69.9066 124.276 68.6248 132.997 64.7724C134.574 64.1165 136.081 63.3011 137.495 62.339C138.836 61.4333 139.961 60.2398 140.787 58.8445C141.622 57.2896 142.015 55.5333 141.921 53.7689C141.813 51.9509 141.45 50.1573 140.844 48.441C140.312 46.78 139.675 45.1549 138.936 43.5756C138.307 42.2593 137.506 40.9676 136.344 40.0616C134.978 38.997 133.315 38.7501 131.639 39.0597C129.952 39.3714 128.317 40.1156 126.77 40.8435C125.344 41.5158 123.961 42.2784 122.63 43.1265C114.583 48.264 108.63 56.126 105.85 65.2904C105.629 66.0371 105.432 66.7903 105.259 67.5498C105.165 67.9625 105.652 68.474 106.056 68.1649C109.844 65.2664 113.632 62.3679 117.42 59.4694C121.046 56.6947 124.714 53.9672 128.297 51.1362C130.977 49.019 133.72 46.1943 133.203 42.4782C133.124 41.7603 132.904 41.0654 132.555 40.4343C132.206 39.8031 131.734 39.2484 131.169 38.8026C129.638 37.6806 127.697 37.9388 126.04 38.6177C124.369 39.3024 122.792 40.3857 120.938 40.4796C119.444 40.5554 118.095 39.7859 117.963 38.1844C117.74 35.4724 119.882 32.7209 118.583 30.0571C117.913 28.6856 116.408 28.0372 114.938 28.1406C113.202 28.2627 111.806 29.2361 110.779 30.6063C109.578 32.21 108.879 34.1709 108.095 35.9995C107.234 38.0079 106.39 40.0254 105.631 42.0756C102.789 49.7545 101.162 58.4897 104.515 66.2923C104.898 67.1815 105.347 68.0409 105.856 68.8636C106.224 69.4579 107.162 68.9116 106.792 68.3138Z" fill="#E1EAE1"/>
<path d="M40.9502 89.2463C35.4335 94.6102 27.3859 95.8534 20.0134 95.3091C15.7125 94.9916 11.466 94.1387 7.24661 93.2756C5.53107 92.9247 3.63206 92.5182 2.31599 91.2694C1.29326 90.2989 0.621738 88.5057 1.40806 87.1966C2.08706 86.0662 3.48261 85.8869 4.68012 85.8726C6.03375 85.8565 7.39239 86.0377 8.74083 85.8533C9.99632 85.6816 11.2018 85.0825 11.7783 83.8894C12.5187 82.357 11.9994 80.592 11.208 79.1897C10.3446 77.6596 8.98228 76.4597 8.24495 74.8491C7.58141 73.3997 7.79292 71.862 8.9698 70.767C9.51416 70.2844 10.1506 69.918 10.8403 69.6904C11.53 69.4627 12.2586 69.3784 12.9818 69.4427C14.7715 69.5954 16.4143 70.5789 17.8277 71.6269C19.4882 72.8582 21.0195 74.2786 22.5875 75.6244C24.2605 77.0605 25.9335 78.4965 27.6065 79.9326C30.98 82.8282 34.3535 85.7239 37.7269 88.6195L40.1953 90.7383C40.3231 90.4284 40.4508 90.1184 40.5786 89.8085C34.4516 89.6772 28.4443 88.0792 23.0552 85.1471C17.6661 82.215 13.0509 78.0334 9.5926 72.9495C8.64441 71.526 7.63781 69.8912 7.79864 68.1051C7.93073 66.6381 8.88242 65.4266 9.92507 64.465C11.1197 63.4282 12.4021 62.4983 13.7577 61.6858C15.2443 60.6834 16.8392 59.8536 18.5119 59.2121C20.1227 58.5781 21.8767 58.4047 23.5796 58.7109C25.1191 59.0806 26.5373 59.8438 27.6969 60.9264C30.1414 63.1 32.0225 66.0008 33.664 68.809C37.1411 74.7523 39.3481 81.3582 40.1443 88.2059C40.239 89.0364 40.3125 89.8689 40.3648 90.7033C40.6732 90.5749 40.9817 90.4466 41.2901 90.3182C36.9399 84.8634 33.1074 79.0114 29.8426 72.8389C28.2554 69.8387 26.6176 66.7496 25.6585 63.478C24.7858 60.5011 24.5624 57.0587 26.5206 54.4463C29.4918 50.4825 35.6758 50.3092 39.5927 52.8194C44.6449 56.0572 46.7983 62.452 47.2552 68.1803C47.7698 74.6317 46.2277 81.285 42.3896 86.5426C40.6204 88.9874 38.3884 91.0572 35.8215 92.6333C33.2545 94.2094 30.4032 95.2607 27.431 95.7271C21.2078 96.6748 14.1049 95.7811 8.93728 100.147C7.93516 100.978 7.12067 102.014 6.548 103.186C5.97532 104.358 5.65759 105.639 5.61595 106.944C5.55028 109.436 6.63725 111.897 8.85821 113.139C11.4269 114.576 14.538 113.982 17.1176 112.901C19.9531 111.713 22.5264 109.873 24.9504 107.999C29.9089 104.167 34.2346 99.574 37.7681 94.3877C38.6404 93.106 39.4604 91.7908 40.2281 90.4422C40.2949 90.3178 40.311 90.1722 40.273 90.0361C40.235 89.9001 40.1459 89.7841 40.0245 89.7128C39.903 89.6415 39.7588 89.6204 39.6222 89.6539C39.4855 89.6874 39.3672 89.7729 39.2921 89.8924C36.1277 95.4304 32.0831 100.411 27.3185 104.637C24.9312 106.763 22.367 108.679 19.654 110.365C17.2187 111.871 14.1185 113.332 11.1798 112.815C8.46501 112.338 6.76937 110.073 6.69973 107.367C6.68292 106.045 6.98415 104.739 7.57779 103.56C8.17142 102.38 9.03987 101.362 10.1092 100.593C15.6302 96.4394 23.0884 97.8692 29.4334 96.4602C35.1912 95.1816 40.2466 91.5026 43.6153 86.687C47.345 81.3555 48.8523 74.6317 48.3392 68.1803C47.8786 62.3892 45.8236 56.1736 41.0634 52.5296C37.151 49.5346 31.2514 49.0944 27.2455 52.1959C25.0001 53.9345 23.8928 56.6431 23.9163 59.4629C23.9441 62.8159 25.289 66.0099 26.7003 68.9872C29.7126 75.3396 33.3126 81.3934 37.4528 87.0686C38.4468 88.4311 39.4704 89.771 40.5236 91.0884C40.6002 91.1623 40.6966 91.2122 40.801 91.232C40.9054 91.2517 41.0133 91.2405 41.1114 91.1996C41.2096 91.1588 41.2937 91.0901 41.3536 91.0019C41.4136 90.9138 41.4466 90.81 41.4488 90.7033C40.9796 83.4763 38.9835 76.4327 35.5935 70.0415C33.9523 66.9506 32.0093 63.8786 29.6283 61.3048C27.276 58.7622 24.2475 57.0787 20.7061 57.5518C17.1077 58.0325 13.8147 60.2058 10.9216 62.2841C8.36594 64.1199 5.9654 66.6866 6.9322 70.0962C7.4083 71.7753 8.45388 73.2661 9.46424 74.6622C10.4177 75.9814 11.454 77.2382 12.5666 78.4249C19.3039 85.5635 28.4178 89.964 38.174 90.7891C38.9743 90.8521 39.776 90.8867 40.5786 90.8978C40.6846 90.8952 40.7876 90.8618 40.8751 90.8015C40.9626 90.7412 41.0308 90.6568 41.0714 90.5583C41.112 90.4598 41.1232 90.3516 41.1038 90.2468C41.0843 90.142 41.035 90.0452 40.9618 89.9681C37.3963 86.9076 33.8309 83.8472 30.2655 80.7867C26.767 77.7838 23.308 74.7254 19.761 71.7806C17.1018 69.5729 13.6823 67.3862 10.1372 68.7968C9.45142 69.0415 8.82286 69.4248 8.29025 69.923C7.75763 70.4212 7.33226 71.0238 7.04039 71.6936C6.3905 73.3591 7.00842 75.1026 7.94957 76.5156C8.9806 78.0634 10.4044 79.3881 10.9058 81.2372C11.3294 82.7994 10.7183 84.2723 9.1007 84.6829C6.53028 85.3354 3.38096 83.9115 1.15496 85.8317C-0.0558279 86.8761 -0.252427 88.6102 0.276682 90.0579C0.878136 91.7035 2.20762 92.7779 3.78485 93.4345C5.68075 94.2238 7.7947 94.5006 9.79718 94.8916C11.9998 95.3218 14.2091 95.7206 16.4337 96.0188C24.2997 97.0731 32.9876 96.6996 39.6214 91.794C40.3588 91.2495 41.0588 90.6557 41.7167 90.0166C42.219 89.5282 41.452 88.7584 40.9502 89.2463Z" fill="#E1EAE1"/>
<path d="M58.3253 39.8593C66.7166 47.2961 73.0745 56.7253 77.5034 67.0131C82.0296 77.5271 84.5905 88.8749 85.6332 100.261C86.8579 113.633 85.959 127.131 84.2565 140.42C82.4508 154.515 79.6981 168.462 77.3584 182.472C75.4002 194.198 73.689 208.245 82.6733 217.668C83.5937 218.626 84.6075 219.489 85.6995 220.244C86.1737 220.575 86.6731 219.946 86.441 219.499C76.3277 199.949 71.151 178.201 71.3664 156.168C71.4713 145.5 72.8698 134.885 75.5311 124.557C78.1182 114.531 81.8466 104.839 86.6425 95.6722C91.4066 86.5448 97.2075 78.003 103.929 70.2177C104.777 69.2373 105.64 68.2698 106.517 67.3152C106.989 66.8003 106.224 66.0281 105.751 66.545C98.706 74.2318 92.5767 82.7173 87.4868 91.8298C82.4198 100.899 78.4023 110.522 75.5126 120.51C72.5466 130.771 70.8255 141.355 70.3868 152.032C69.501 174.24 74.0568 196.326 83.6538 216.351C84.2514 217.593 84.8685 218.826 85.505 220.049C85.7522 219.8 85.9994 219.552 86.2466 219.303C81.5383 216.021 78.7539 210.676 77.558 205.147C76.0869 198.345 77.0142 191.274 78.1176 184.492C80.3787 170.597 83.1366 156.784 85.0231 142.828C86.8254 129.495 87.8974 115.965 86.9038 102.516C86.0736 91.2796 83.8178 80.0839 79.7178 69.5778C75.7203 59.3345 69.9343 49.7438 62.1459 41.9586C61.1575 40.9705 60.1394 40.014 59.0918 39.0891C58.5703 38.6269 57.8008 39.3945 58.3253 39.8593Z" fill="#E1EAE1"/>
<path d="M77.1912 222.47C78.9898 210.094 83.3 198.313 87.2331 186.505C91.1469 174.756 94.7498 162.662 95.046 150.181C95.2885 139.962 93.0811 129.447 87.5153 120.78C84.8893 116.662 81.4792 113.106 77.4811 110.316C73.8 107.762 69.7326 105.837 65.6563 104.017C57.8164 100.515 49.0596 97.2901 43.5319 90.336C42.8637 89.4893 42.2549 88.5969 41.71 87.6652C41.635 87.5457 41.5166 87.4602 41.38 87.4267C41.2433 87.3932 41.0991 87.4143 40.9777 87.4856C40.8563 87.5569 40.7671 87.6728 40.7292 87.8089C40.6912 87.945 40.7073 88.0906 40.774 88.215C45.2761 95.852 53.4268 99.7816 61.2073 103.231C65.2901 105.041 69.4167 106.785 73.3089 108.992C77.4229 111.257 81.0797 114.274 84.0913 117.889C90.4787 125.713 93.5228 135.991 93.9305 145.993C94.4349 158.37 91.2581 170.532 87.5017 182.211C83.7274 193.945 79.2543 205.511 76.9104 217.655C76.6205 219.157 76.3657 220.666 76.1459 222.18C76.0463 222.866 77.0906 223.162 77.1912 222.47Z" fill="#E1EAE1"/>
</g>
</svg>
